<?xml version="1.0" encoding="utf-8"?>
<svg version="1.1" xmlns="http://www.w3.org/2000/svg" xmlns:xlink="http://www.w3.org/1999/xlink" height="50" width="115">
  <defs>
    <path id="path-1" opacity="1" fill-rule="evenodd" d="M-3.8514259911298646e-16,10 C-1.3996732257602536e-15,4.477152501692063 4.477152501692065,-3.4610483087121704e-15 10.000000000000002,-2.7846945576139922e-15 L104.99999999999987,8.848931476211721e-15 C110.52284749830781,8.848931476211721e-15 114.99999999999987,4.477152501692076 114.99999999999987,10.000000000000009 L114.99999999999987,40.00000000000002 C114.99999999999987,45.52284749830797 110.52284749830778,50.000000000000036 104.99999999999984,50.00000000000002 L9.999999999999963,49.999999999999694 C4.477152501692044,49.99999999999967 -4.696572356390084e-17,45.52284749830761 -3.8514259911298883e-16,39.999999999999694 L-3.8514259911298646e-16,10Z"/>
    <path id="path-2" opacity="1" fill-rule="evenodd" d="M62.34615384615385,16.129807692307693 L62.34615384615385,18.98557692307692 L60.64783653846154,18.98557692307692 C59.31730769230769,18.98557692307692 59.06850961538461,19.623798076923073 59.06850961538461,20.543269230769226 L59.06850961538461,22.587740384615383 L62.237980769230774,22.587740384615383 L61.816105769230774,25.78966346153846 L59.06850961538461,25.78966346153846 L59.06850961538461,34 L55.75841346153846,34 L55.75841346153846,25.78966346153846 L53,25.78966346153846 L53,22.587740384615383 L55.75841346153846,22.587740384615383 L55.75841346153846,20.229567307692307 C55.75841346153846,17.49278846153846 57.43509615384615,16 59.87980769230769,16 C61.04807692307693,16 62.05408653846154,16.08653846153846 62.34615384615385,16.129807692307693Z"/>
  </defs>
  <g opacity="1">
    <g opacity="1">
      <use xlink:href="#path-1" fill="rgb(59,89,152)" fill-opacity="1"/>
    </g>
    <g opacity="1">
      <use xlink:href="#path-2" fill="rgb(255,255,255)" fill-opacity="1"/>
    </g>
  </g>
</svg>