<?xml version="1.0" encoding="utf-8"?>
<svg version="1.1" xmlns="http://www.w3.org/2000/svg" xmlns:xlink="http://www.w3.org/1999/xlink" height="50" width="115">
  <defs>
    <path id="path-1" opacity="1" fill-rule="evenodd" d="M10,0 L105,0 C110.51915024494,0 115,4.48084975506 115,10 L115,40 C115,45.51915024494 110.51915024494,50 105,50 L10,50 C4.480849755060001,50 1.7763568394002505e-15,45.51915024494 0,40 L0,10 C0,4.480849755060001 4.480849755059998,1.7763568394002505e-15 10,0Z"/>
    <linearGradient id="linearGradient-2" x1="0.5" y1="0" x2="0.5" y2="1">
      <stop offset="0" stop-color="rgb(233,143,35)" stop-opacity="1"/>
      <stop offset="0.3412690033783784" stop-color="rgb(212,59,75)" stop-opacity="1"/>
      <stop offset="0.6922772381756757" stop-color="rgb(211,0,119)" stop-opacity="1"/>
      <stop offset="1" stop-color="rgb(131,0,198)" stop-opacity="1"/>
    </linearGradient>
    <mask id="mask-3" maskUnits="userSpaceOnUse" maskContentUnits="userSpaceOnUse">
      <rect opacity="1" x="0" y="0" width="115" height="50" fill="black"/>
      <use xlink:href="#path-1" fill="white"/>
    </mask>
    <path id="path-4" opacity="1" fill-rule="evenodd" d="M53.13720703125,13 L62.820770263671875,13 C66.7562255859375,13 69.95794677734375,16.201751708984375 69.9580078125,20.13720703125 L69.9580078125,29.820770263671875 C69.9580078125,33.756256103515625 66.75625610351562,36.9580078125 62.820770263671875,36.9580078125 L53.13720703125,36.9580078125 C49.201751708984375,36.9580078125 46,33.756256103515625 46,29.820770263671875 L46,20.13720703125 C46,16.201751708984375 49.201751708984375,13 53.13720703125,13 L62.82080078125,34.5478515625 C65.43145751953125,34.5478515625 67.5478515625,32.43145751953125 67.5478515625,29.82080078125 L67.5478515625,20.137237548828125 C67.5478515625,17.526519775390625 65.43145751953125,15.410186767578125 62.82080078125,15.410186767578125 L53.137237548828125,15.410186767578125 C50.526580810546875,15.410186767578125 48.410186767578125,17.526519775390625 48.410186767578125,20.137237548828125 L48.410186767578125,29.82080078125 C48.410186767578125,32.43145751953125 50.526580810546875,34.5478515625 53.137237548828125,34.5478515625 L62.82080078125,34.5478515625 L53.13720703125,13Z"/>
    <radialGradient id="radialGradient-5" cx="0.4999999999999999" cy="0.9970891088390187" r="0.9893218930229348">
      <stop offset="0" stop-color="rgb(224,155,61)" stop-opacity="1"/>
      <stop offset="0.3" stop-color="rgb(199,76,77)" stop-opacity="1"/>
      <stop offset="0.6" stop-color="rgb(194,25,117)" stop-opacity="1"/>
      <stop offset="1" stop-color="rgb(112,36,196)" stop-opacity="1"/>
    </radialGradient>
    <path id="path-6" opacity="1" fill-rule="evenodd" d="M51.782623291015625,24.978973388671875 C51.782623291015625,21.56231689453125 54.56231689453125,18.782623291015625 57.97900390625,18.782623291015625 C61.395721435546875,18.782623291015625 64.1754150390625,21.562286376953125 64.1754150390625,24.978973388671875 C64.1754150390625,28.395660400390625 61.395721435546875,31.17535400390625 57.97900390625,31.17535400390625 C54.56231689453125,31.17535400390625 51.782623291015625,28.3956298828125 51.782623291015625,24.978973388671875 L54.192779541015625,24.97900390625 C54.192779541015625,27.070098876953125 55.887908935546875,28.765228271484375 57.97900390625,28.765228271484375 C60.070037841796875,28.765228271484375 61.765228271484375,27.070037841796875 61.765228271484375,24.97900390625 C61.765228271484375,22.887908935546875 60.070098876953125,21.192779541015625 57.97900390625,21.192779541015625 C55.887939453125,21.192779541015625 54.192779541015625,22.887908935546875 54.192779541015625,24.97900390625 L51.782623291015625,24.978973388671875Z"/>
    <radialGradient id="radialGradient-7" cx="0.5" cy="1.460988727621012" r="1.91258556026846">
      <stop offset="0" stop-color="rgb(224,155,61)" stop-opacity="1"/>
      <stop offset="0.3" stop-color="rgb(199,76,77)" stop-opacity="1"/>
      <stop offset="0.6" stop-color="rgb(194,25,117)" stop-opacity="1"/>
      <stop offset="1" stop-color="rgb(112,36,196)" stop-opacity="1"/>
    </radialGradient>
    <ellipse id="ellipse-8" opacity="1" rx="1.4847826086956515" ry="1.4847826086956515" cx="64.1873913043478" cy="18.829130434782613"/>
    <radialGradient id="radialGradient-9" cx="0.49999999999999967" cy="6.5814055636896045" r="7.9816983894582725">
      <stop offset="0" stop-color="rgb(224,155,61)" stop-opacity="1"/>
      <stop offset="0.3" stop-color="rgb(199,76,77)" stop-opacity="1"/>
      <stop offset="0.6" stop-color="rgb(194,25,117)" stop-opacity="1"/>
      <stop offset="1" stop-color="rgb(112,36,196)" stop-opacity="1"/>
    </radialGradient>
  </defs>
  <g opacity="1">
    <g opacity="1">
      <use xlink:href="#path-1" fill="rgb(255,255,255)" fill-opacity="1"/>
      <use xlink:href="#path-1" fill-opacity="0" stroke="url(#linearGradient-2)" stroke-opacity="1" stroke-width="4" mask="url(#mask-3)"/>
    </g>
    <g opacity="1">
      <g opacity="1">
        <use xlink:href="#path-4" fill="url(#radialGradient-5)" fill-opacity="1"/>
      </g>
      <g opacity="1">
        <use xlink:href="#path-6" fill="url(#radialGradient-7)" fill-opacity="1"/>
      </g>
      <g opacity="1">
        <use xlink:href="#ellipse-8" fill="url(#radialGradient-9)" fill-opacity="1"/>
      </g>
    </g>
  </g>
</svg>