<?xml version="1.0" standalone="no"?>
<!DOCTYPE svg PUBLIC "-//W3C//DTD SVG 1.1//EN" "http://www.w3.org/Graphics/SVG/1.1/DTD/svg11.dtd" >
<svg xmlns="http://www.w3.org/2000/svg" xmlns:xlink="http://www.w3.org/1999/xlink" version="1.1">
<metadata>
Created by FontForge 20190413 at Mon Jun 29 12:09:50 2020
 By Skripatch
</metadata>
<defs>
<font id="Glyphter" horiz-adv-x="1024" >
  <font-face 
    font-family="Glyphter"
    font-weight="400"
    font-stretch="normal"
    units-per-em="1024"
    panose-1="2 0 5 3 0 0 0 0 0 0"
    ascent="1024"
    descent="0"
    cap-height="981"
    bbox="-0.198347 -0.313725 1037.54 1024.03"
    underline-thickness="0"
    underline-position="10"
    unicode-range="U+0041-0059"
  />
    <missing-glyph />
    <glyph glyph-name=".null" horiz-adv-x="0" 
 />
    <glyph glyph-name="A" unicode="A" 
d="M511 1023q-125 -3 -208.5 -86.5t-86.5 -208.5q0 -77 34.5 -140t93.5 -104q-110 -38 -194 -122q-73 -73 -111.5 -165.5t-38.5 -195.5h80q5 183 126.5 304.5t304.5 126.5q125 3 208.5 86.5t86.5 209.5q-3 125 -86.5 208.5t-208.5 86.5v0zM511 512q-91 2 -152 63t-64 153
q3 91 64 152t152 63q91 -2 152 -63t64 -152q-3 -92 -64 -153t-152 -63v0zM856 249v83v84h-80v-167h-167v-80h167v-168h80v168h168v80h-168z" />
    <glyph glyph-name="B" unicode="B" 
d="M783 461l-220 -220l-220 -220q-22 -21 -50.5 -21t-50 21.5t-21.5 50t20 50.5l390 390l-389 390q-21 22 -21 50.5t21.5 50t50 21.5t50.5 -21l440 -440q21 -22 21 -51t-21 -51v0z" />
    <glyph glyph-name="C" unicode="C" 
d="M976 560h-407h-406l223 223q14 15 14 34t-14.5 33.5t-33.5 14.5t-33 -14l-305 -305q-14 -15 -14 -34t14 -33l305 -305q14 -14 33 -14t33.5 14.5t14.5 33.5t-14 33l-223 224h813q21 0 34 13.5t13 34t-13 33.5t-34 14v0z" />
    <glyph glyph-name="D" unicode="D" 
d="M318 0q-14 1 -26.5 4.5t-26.5 10.5q-33 16 -54 44.5t-27 64.5q-2 -2 -2 70v636q1 73 2 71q2 17 8 31q15 35 42 58t65 32q5 1 11 2h20q17 0 26.5 -1.5t22.5 -6.5q38 -13 63.5 -43.5t32.5 -70.5q2 3 2 -61v-647q0 -72 -1 -70q-8 -47 -42 -81q-47 -47 -116 -43v0zM342 81
q11 2 19.5 6.5t16.5 12.5q13 13 18 30l2 7v663q0 86 -1 87q-3 22 -19 38q-21 20 -48 20q-24 0 -42 -14t-24 -37q-2 6 -2 -57v-649q0 -63 2 -57q4 -18 18 -31q26 -25 60 -19v0zM673 368q-50 8 -85 44q-29 30 -39 72l-2 9v372q0 34 1 36q8 41 33.5 71.5t63.5 43.5
q13 5 22.5 6.5t26.5 1.5h20q6 -1 11 -2q44 -10 74 -41q33 -33 41 -80q1 -2 2 -41v-313q0 -50 -1 -53q-6 -40 -30.5 -71t-62.5 -46q-13 -5 -24 -7.5t-26 -2.5h-15l-10 1v0zM703 447q21 3 36.5 16.5t21.5 34.5q1 -1 1 34v329q0 33 -2 33q-6 23 -24 37t-41.5 14t-41.5 -14
t-25 -37q-1 0 -2 -33v-330q1 -34 2 -33q6 -20 20 -33.5t35 -17.5q6 -1 10 -1t10 1v0z" />
    <glyph glyph-name="E" unicode="E" 
d="M24 445q14 -9 29.5 -9t29.5 9q4 3 8 7l35 35v-244q2 -82 61 -138.5t146 -58.5h375q85 2 141 57.5t58 139.5v235l26 -26q16 -16 37.5 -16t37.5 16t16 37.5t-16 37.5l-421 421q-30 30 -69.5 31.5t-72.5 -24.5l-8 -7l-421 -421q-16 -16 -16 -37.5t16 -37.5q4 -4 8 -7v0z
M801 584v-170v-171q-1 -38 -27.5 -64t-65.5 -27h-375q-42 1 -70.5 27.5t-30.5 63.5v350l280 280l289 -289v0z" />
    <glyph glyph-name="F" unicode="F" 
d="M864 789h-46h-45l-35 69q-21 41 -58.5 64.5t-84.5 23.5h-166q-47 0 -84.5 -23.5t-58.5 -64.5l-35 -69h-91q-68 -2 -113 -47t-47 -113v-390q2 -68 47 -113.5t113 -46.5h704q68 1 113 46.5t47 113.5v390q-2 68 -47 113t-113 47v0zM944 239q-1 -34 -23.5 -57t-56.5 -23h-704
q-34 0 -56.5 23t-23.5 57v390q1 34 23.5 56.5t56.5 23.5h116q12 0 21.5 6t14.5 16l45 91q11 21 30 32.5t42 11.5h166q23 0 42 -11.5t30 -32.5l45 -91q5 -10 14.5 -16t21.5 -6h116q34 -1 56.5 -23.5t23.5 -56.5v-390zM512 672q-84 -3 -139.5 -58.5t-57.5 -139.5
q2 -84 57.5 -139.5t139.5 -57.5q84 2 139.5 57.5t57.5 139.5q-2 84 -57.5 139.5t-139.5 58.5v0zM512 357q-50 1 -83 34t-34 83q1 50 34 83t83 35q50 -2 83 -35t34 -83q-1 -50 -34 -83t-83 -34v0z" />
    <glyph glyph-name="G" unicode="G" 
d="M512 959q-217 -4 -361.5 -106.5t-150.5 -255.5q1 -85 50.5 -158t141.5 -125q-15 -56 -38 -115t-54 -98q-8 -11 -2 -23t19 -12h2q16 -3 136.5 29.5t237.5 139.5h19q217 4 361.5 106t150.5 256q-6 153 -150.5 255.5t-361.5 106.5v0zM285 297q1 4 9 32l9 32l-59 31
q-72 40 -111 92.5t-39 112.5q5 112 124 188.5t294 79.5q175 -3 294 -79.5t124 -188.5q-5 -112 -124 -188.5t-294 -79.5l-58 1l-26 -27q-66 -69 -175 -109q17 47 32 103v0z" />
    <glyph glyph-name="H" unicode="H" 
d="M53.9707 970.029l-53.9785 -53.9795l916.058 -916.058l53.9795 53.9785l53.9785 53.9795l-916.058 916.058zM970.029 970.029l-53.9795 53.9785l-916.058 -916.058l53.9785 -53.9795l53.9795 -53.9785l916.058 916.058z" />
    <glyph glyph-name="I" unicode="I" 
d="M742 981q-66 -1 -126.5 -29t-103.5 -79q-43 51 -103.5 79t-126.5 29q-122 -3 -200.5 -81.5t-81.5 -200.5q3 -142 120.5 -278.5t319.5 -309.5l72 -67l72 67q199 177 318 313.5t122 274.5q-3 122 -81.5 200.5t-200.5 81.5v0zM517 182h-2h-3l-5 5q-187 163 -294.5 283.5
t-110.5 228.5q2 79 51.5 128.5t128.5 51.5q59 -1 109 -35t75 -88h97q21 54 70.5 88t108.5 35q79 -2 128.5 -51.5t51.5 -128.5q-3 -108 -110.5 -229.5t-294.5 -287.5v0z" />
    <glyph glyph-name="J" unicode="J" 
d="M742 981q-66 -1 -126.5 -29t-103.5 -79q-43 51 -103.5 79t-126.5 29q-122 -3 -200.5 -81.5t-81.5 -200.5q3 -142 120.5 -278.5t319.5 -309.5l72 -67l72 67q199 177 318 313.5t122 274.5q-3 122 -81.5 200.5t-200.5 81.5v0z" />
    <glyph glyph-name="K" unicode="K" 
d="M974 337v0l-368 231q-10 6 -22 6h-32v17q48 14 78 52.5t31 90.5q-2 64 -44 106t-105 43q-63 -1 -105 -43t-44 -106q0 -17 11.5 -28.5t29 -11.5t28.5 11.5t12 28.5q1 29 20 48.5t48 19.5t48 -19.5t19 -48t-19 -48t-48 -20.5q-17 0 -28.5 -11.5t-11.5 -28.5v-52h-32
q-12 0 -22 -6l-368 -231q-24 -15 -37 -38.5t-13 -51.5q1 -45 31 -74.5t75 -30.5h812q45 1 75 30.5t31 74.5q0 28 -13 51.5t-37 38.5v0zM918 222h-406h-406q-11 1 -18 8t-7 17q0 14 12 22l358 224h122l358 -224q12 -8 12 -22q0 -10 -7 -17t-18 -8v0z" />
    <glyph glyph-name="L" unicode="L" 
d="M696 1000q184 -56 277 -209t52 -329q-30 -114 -106.5 -198t-188.5 -126q-32 -12 -63.5 -16t-82.5 -4q-70 -2 -116 10t-108 44l-57 30l-58 -56q-90 -90 -117.5 -112t-44.5 -18q-27 0 -47.5 22t-21.5 50q-1 16 17 39t76 81q40 38 66 67t26.5 34t-4.5 16t-13 23
q-26 44 -39.5 99t-13.5 119q2 148 82 259t223 163q53 18 132 22t130 -10v0zM490 886q-49 -14 -84 -36t-70 -58q-49 -52 -70.5 -106t-21.5 -122q1 -102 51 -180t142 -122q35 -18 61 -23t72 -5q66 -2 113 11t93 45q85 60 123.5 156t14.5 192q-25 90 -87 155t-155 95
q-32 10 -87.5 10t-94.5 -12v0z" />
    <glyph glyph-name="M" unicode="M" 
d="M397 512q1 49 33.5 81.5t81.5 34.5q49 -2 81.5 -34.5t33.5 -81.5q-1 -49 -33.5 -81.5t-81.5 -33.5q-49 1 -81.5 33.5t-33.5 81.5v0zM909 628q-49 -2 -81.5 -34.5t-34.5 -81.5q2 -49 34.5 -81.5t81.5 -33.5q49 1 81.5 33.5t33.5 81.5q-1 49 -33.5 81.5t-81.5 34.5v0z
M115 628q-49 -2 -81.5 -34.5t-33.5 -81.5q1 -49 33.5 -81.5t81.5 -33.5q49 1 81.5 33.5t34.5 81.5q-2 49 -34.5 81.5t-81.5 34.5v0z" />
    <glyph glyph-name="N" unicode="N" 
d="M399 910q3 -68 56.5 -98.5t113.5 0.5q27 15 42 41t15 57q-4 68 -57 98.5t-114 0.5q-26 -16 -41 -42t-15 -57zM399 512q3 -68 56.5 -98.5t113.5 -0.5q27 16 42 42t15 57q-4 68 -57 98.5t-114 0.5q-26 -16 -41 -42t-15 -57zM399 114q3 -68 56.5 -98.5t113.5 -0.5
q27 16 42 42t15 57q-4 68 -57 98.5t-114 -0.5q-26 -15 -41 -41t-15 -57z" />
    <glyph glyph-name="O" unicode="O" 
d="M328 0q-23 0 -45.5 8.5t-41.5 26.5q-38 38 -39.5 88.5t34.5 90.5l284 299l-283 296q-37 40 -35.5 91t39.5 89q40 36 90.5 35t88.5 -39l367 -384q35 -39 35.5 -88t-34.5 -87l-368 -387q-19 -19 -42.5 -29t-49.5 -10v0z" />
    <glyph glyph-name="P" unicode="P" 
d="M931 279h-23h-23v373q-4 158 -109.5 263t-263.5 109q-158 -4 -263 -109t-109 -263v-373h-46q-20 0 -33.5 -13t-13.5 -33t13.5 -33t33.5 -14h232q2 -79 54.5 -131.5t131.5 -54.5q79 2 132 54.5t55 131.5h232q20 1 33 14t13 33t-13 33t-33 13v0zM512 93q-39 1 -65.5 27.5
t-27.5 65.5h187q-1 -39 -27.5 -65.5t-66.5 -27.5v0zM792 279h-47h-512v373q3 118 82 197t197 82q119 -3 198 -82t82 -197v-373v0z" />
    <glyph glyph-name="Q" unicode="Q" 
d="M931 605h-163h-162v326q-1 39 -27.5 65.5t-66 26.5t-65.5 -26.5t-27 -65.5v-326h-326q-40 -1 -66.5 -27t-26.5 -66q0 -19 7 -36t20 -30q26 -27 66 -28h326v-325q0 -39 26.5 -65.5t66 -26.5t66 26.5t27.5 65.5v325h325q40 1 66 27.5t26 66.5t-26 66t-66 27v0z" />
    <glyph glyph-name="R" unicode="R" 
d="M667 819q-20 -11 -154 -88l-153 -87q-58 65 -139 72t-149 -48q-65 -57 -71.5 -138.5t47.5 -149.5q58 -64 139.5 -71t148.5 48q13 10 24 23l307 -174v102l-264 151q16 53 0 107l264 150v103v0zM207 400q-48 2 -79.5 33.5t-32.5 78.5q1 48 32.5 79.5t79.5 32.5
q47 -1 79 -32.5t33 -79.5q-1 -47 -33 -78.5t-79 -33.5v0zM820 1023q-87 -2 -144.5 -60t-60.5 -144q3 -87 60.5 -145t144.5 -60q87 2 144.5 60t59.5 145q-2 86 -59.5 144t-144.5 60v0zM820 707q-48 1 -79.5 32.5t-32.5 79.5q1 47 32.5 78.5t79.5 32.5q47 -1 78.5 -32.5
t33.5 -78.5q-2 -48 -33.5 -79.5t-78.5 -32.5v0zM820 410q-87 -2 -144.5 -59.5t-60.5 -144.5q3 -87 60.5 -144.5t144.5 -59.5q87 2 144.5 59.5t59.5 144.5q-2 87 -59.5 144.5t-144.5 59.5v0zM820 94q-48 1 -79.5 32.5t-32.5 79.5q1 47 32.5 78.5t79.5 33.5q47 -2 78.5 -33.5
t33.5 -78.5q-2 -48 -33.5 -79.5t-78.5 -32.5v0z" />
    <glyph glyph-name="S" unicode="S" 
d="M991 539q-7 7 -51 60l-51 60q-47 55 -111 85t-136 30q-18 -1 -26 -17l-75 51v35q28 9 46 33t18 55q-1 39 -27 65.5t-65.5 26.5t-66 -26.5t-27.5 -65.5q1 -12 9 -20t20 -8t20 8t8 20q1 15 11 25.5t25 10.5t25.5 -10.5t10.5 -25.5t-10.5 -25t-25.5 -11q-12 0 -20 -8t-8 -20
v-59l-76 -51q-7 16 -26 17q-72 0 -136 -29.5t-111 -85.5l-101 -120q-7 -9 -7 -19.5t8 -18.5l120 -121q10 -9 22.5 -8t20.5 12l19 25v-381q0 -12 8 -20t20 -8h534q12 0 20 8t8 20v380l19 -25q7 -10 20 -11t23 8l120 120q8 9 8.5 19.5t-6.5 19.5v0zM512 759l45 -30l45 -30
q-13 -25 -36.5 -39.5t-53 -14.5t-53 14.5t-36.5 39.5l89 60v0zM852 444q-3 4 -25 34l-25 33q-6 8 -14.5 10.5t-17.5 0t-14 -10t-6 -16.5v-438h-476v438q0 9 -5.5 16.5t-14 10t-17.5 0t-14 -10.5l-51 -67l-78 78l85 101q34 40 80 64t98 29q11 -56 53.5 -91.5t101.5 -36.5
q59 1 101.5 36.5t53.5 91.5q52 -5 98 -29t80 -64l85 -101l-78 -78v0z" />
    <glyph glyph-name="T" unicode="T" 
d="M918 748q-12 12 -29 12h-753q-17 0 -28.5 -12t-11.5 -29l25 -605q3 -49 36 -81t83 -33h544q49 1 82.5 33t35.5 80l27 606q0 17 -11 29v0zM823 116q-1 -16 -12 -26t-27 -11h-544q-16 1 -27.5 11.5t-12.5 26.5l-23 564h671l-25 -565v0zM512 1024q-98 -2 -163.5 -67.5
t-67.5 -163.5v-294q0 -17 11.5 -28t28 -11t27.5 11t12 28v294q2 64 44.5 107t107.5 45q64 -2 107 -45t44 -107v-294q1 -17 12 -28t28 -11t28 11t12 28v294q-3 98 -68 163.5t-163 67.5v0z" />
    <glyph glyph-name="U" unicode="U" 
d="M779 741h-19h-18v54q-3 97 -67.5 162t-162.5 67q-97 -2 -161.5 -67t-67.5 -162v-54h-37q-47 -2 -78.5 -33t-32.5 -79v-518q1 -47 32.5 -78.5t78.5 -32.5h533q47 1 78.5 32.5t32.5 78.5v518q-1 48 -32.5 79t-78.5 33v0zM356 795q2 66 46 110.5t110 45.5q67 -1 111 -45.5
t46 -110.5v-54h-313v54v0zM818 111q-1 -16 -11.5 -27t-27.5 -11h-533q-17 0 -28 11t-11 27v518q0 17 11 28t28 11h37v-51q-18 -16 -19 -41q1 -24 16.5 -39.5t39 -15.5t39.5 15.5t16 39.5q-1 25 -19 41v51h313v-51q-18 -16 -19 -41q0 -24 16 -39.5t39.5 -15.5t39 15.5
t16.5 39.5q-1 25 -19 41v51h37q17 0 27.5 -11t11.5 -28v-518z" />
    <glyph glyph-name="V" unicode="V" 
d="M225 892q-130 -38 -189 -147t-21 -241q13 -50 52 -93.5t168 -151.5q67 -56 113 -93.5t50 -38.5q3 1 19.5 19t38.5 44.5t38.5 44t18.5 17.5t18 -18t38.5 -44.5t39 -45t18.5 -18.5q23 14 155 126.5t169 148.5q21 24 40 61t27 69q3 12 4.5 31.5t1.5 37.5q0 39 -6.5 68.5
t-24.5 65.5q-11 24 -23 40t-34 38q-46 46 -96.5 67t-114.5 20q-54 1 -98 -13t-85 -45l-30 -22l-24 19q-23 17 -53.5 32t-60 22t-75 7t-74.5 -7v0zM331 805q23 -4 52 -16t45 -25l10 -9l-99 -84q-42 -35 -70.5 -60t-29.5 -27q2 -3 31 -39l75 -89l105 -125l-30 -37
q-14 -15 -23.5 -25t-11.5 -10q-19 13 -116.5 96.5t-123.5 108.5q-44 50 -50.5 116t28.5 127q21 35 61.5 62.5t81.5 35.5q22 4 32.5 4t32.5 -4v0zM764 803q62 -14 104 -55t58 -105q10 -38 1.5 -80.5t-33.5 -80.5q-7 -11 -41.5 -43t-93.5 -81l-120 -102l-19 21l-45 54l180 214
q30 36 32 38q-1 2 -15 14.5t-36 30.5q-107 90 -129 111t-11 24q11 11 38.5 23.5t51 17.5t38.5 5t40 -6v0zM565 707q-4 -14 -6.5 -26t-2.5 -16t13.5 -18t35.5 -32q36 -30 42.5 -38.5t-1.5 -13.5l-88 -105q-78 -93 -88.5 -101.5t3.5 34.5l13 45l-57 68q-24 28 -39.5 48
t-15.5 23q15 15 100.5 86.5t98.5 80.5q1 -1 -2 -11l-6 -24v0z" />
    <glyph glyph-name="W" unicode="W" 
d="M85.333 621.611l-60.3398 -60.3398l299.223 -299.223l60.3398 60.3398l60.3398 60.3398l-299.223 299.223zM953.444 959.777l-60.3398 60.3398l-637.333 -637.333l60.3398 -60.3398l60.3398 -60.3398l637.333 637.334z" />
    <glyph glyph-name="X" unicode="X" 
d="M828.211 1024q14.9265 0 25.4711 -10.5388t10.5446 -25.4768v-216.034q0 -10.8882 -7.21791 -20.8939t-17.4169 -13.3961l-216.063 -72.0312q-5.54425 -1.84277 -11.3809 -1.84277q-14.929 0 -25.4943 10.5653t-10.5653 25.4943q0 10.7673 7.23071 20.7924
t17.448 13.4235l159.539 53.1895q-56.292 61.471 -132.549 95.0573q-76.2572 33.5863 -159.584 33.5863q-107.583 0.0288201 -198.834 -52.96q-91.2506 -52.9888 -144.272 -144.228t-53.0357 -198.836q0 -14.9106 -10.5525 -25.4631t-25.4631 -10.5525t-25.4631 10.5525
t-10.5525 25.4631q-0.000976562 0.780273 -0.000976562 0.905273q0 78.2936 38.5416 173.516q38.5416 95.2224 92.9994 151.474q88.2872 91.1799 208.064 125.015q119.776 33.8352 240.588 3.89195q120.812 -29.9433 212.004 -118.228v131.569q0 14.9012 10.5485 25.4438
t25.4671 10.5426zM900.242 555.886q14.9209 -0.0292969 25.4536 -10.562t10.5327 -25.4536q0.000976562 -0.242188 0.000976562 -0.875977q0 -78.2936 -38.5416 -173.516q-38.5416 -95.2222 -92.9994 -151.474q-88.2864 -91.1934 -208.064 -125.035t-240.588 -3.90024
q-120.811 29.9417 -212.004 118.228v-131.54q0 -14.9106 -10.5525 -25.4631t-25.4631 -10.5525t-25.4631 10.5525q-10.5525 10.5525 -10.5525 25.4631v216.064q-0.0219782 11.6543 6.778 21.1144q6.79998 9.46005 17.8568 13.1454l216.063 72.0312
q5.53893 1.84277 11.3809 1.84277q14.929 0 25.4943 -10.5653t10.5653 -25.4943q0 -10.7668 -7.23079 -20.7921t-17.4479 -13.4237l-159.539 -53.1602q56.2621 -61.4623 132.525 -95.0566q76.2627 -33.5943 159.579 -33.6163q107.6 -0.0144103 198.856 52.9745
q91.256 52.9889 144.286 144.228q53.0293 91.2394 53.0581 198.851q0 14.9012 10.5485 25.4438t25.4677 10.5422z" />
    <glyph glyph-name="Y" unicode="Y" 
d="M83.5918 710.53q0 29.323 -0.760577 77.377q-0.468316 29.5887 -0.863744 42.5519q-0.395428 12.9632 1.25799 33.073t1.83879 26.9746q0.185374 6.86476 6.15082 18.9833q5.96545 12.1186 8.57045 14.724q2.605 2.60546 14.7213 8.5719q12.1163 5.96644 18.9797 6.15176
q6.86344 0.185321 26.9694 1.83879t33.0667 1.2578q12.9607 -0.395672 42.5437 -0.864461q48.0688 -0.761726 77.4033 -0.761726h397.061q29.323 0 77.377 0.760577q29.5887 0.468316 42.5519 0.863744q12.9632 0.395428 33.073 -1.25799q20.1098 -1.65342 26.9746 -1.83879
q6.86476 -0.185374 18.9833 -6.15082q12.1186 -5.96545 14.724 -8.57045q2.60546 -2.605 8.5719 -14.7213q5.96644 -12.1163 6.15176 -18.9797q0.185321 -6.86344 1.83879 -26.9694q1.65347 -20.106 1.2578 -33.0667q-0.395672 -12.9607 -0.864461 -42.5437
q-0.761726 -48.0688 -0.761726 -77.4033v-397.061q0 -29.323 0.760577 -77.377q0.468316 -29.5887 0.863744 -42.5519q0.395428 -12.9632 -1.25799 -33.073q-1.65342 -20.1098 -1.83879 -26.9746q-0.185374 -6.86476 -6.15082 -18.9833q-5.96545 -12.1186 -8.57045 -14.724
q-2.605 -2.60546 -14.7213 -8.5719q-12.1163 -5.96644 -18.9797 -6.15176q-6.86344 -0.185321 -26.9694 -1.83879q-20.106 -1.65347 -33.0667 -1.2578q-12.9607 0.395672 -42.5437 0.864461q-48.0688 0.761726 -77.4033 0.761726h-397.061q-29.323 0 -77.377 -0.760577
q-29.5887 -0.468316 -42.5519 -0.863744q-12.9632 -0.395428 -33.073 1.25799q-20.1098 1.65342 -26.9746 1.83879q-6.86476 0.185374 -18.9833 6.15082q-12.1186 5.96545 -14.724 8.57045t-8.5719 14.7213q-5.96644 12.1163 -6.15176 18.9797
q-0.185321 6.86344 -1.83879 26.9694q-1.65347 20.106 -1.2578 33.0667q0.395672 12.9607 0.864461 42.5437q0.761726 48.0688 0.761726 77.4033v397.061zM0 710.53v-397.061q0 -56.5458 1.66976 -94.4158q1.66976 -37.87 8.07668 -72.8241
q6.40693 -34.9541 15.0813 -55.695q8.67437 -20.7409 26.8251 -38.8895q18.1507 -18.1486 38.8905 -26.8226q20.7397 -8.67396 55.695 -15.0792q34.9553 -6.40527 72.8211 -8.0744q37.8659 -1.66912 94.4103 -1.66912h397.061q56.5458 0 94.4158 1.66976
q37.87 1.66976 72.8241 8.07668q34.9541 6.40693 55.695 15.0813q20.7409 8.67437 38.8895 26.8251q18.1486 18.1507 26.8226 38.8905q8.67396 20.7397 15.0792 55.695t8.0744 72.8211q1.66912 37.8659 1.66912 94.4103v397.061q0 56.5458 -1.66976 94.4158
q-1.66976 37.87 -8.07668 72.8241q-6.40693 34.9541 -15.0813 55.695q-8.67437 20.7409 -26.8251 38.8895q-18.1507 18.1486 -38.8905 26.8226q-20.7397 8.67396 -55.695 15.0792q-34.9553 6.40527 -72.8211 8.0744q-37.8659 1.66912 -94.4103 1.66912h-397.061
q-56.5458 0 -94.4158 -1.66976q-37.87 -1.66976 -72.8241 -8.07668q-34.9541 -6.40693 -55.695 -15.0813q-20.7409 -8.67437 -38.8895 -26.8251q-18.1486 -18.1507 -26.8226 -38.8905q-8.67396 -20.7397 -15.0792 -55.695q-6.40527 -34.9553 -8.0744 -72.8211
q-1.66912 -37.8659 -1.66912 -94.4103zM478.177 409.619q0 -14.7404 10.4382 -25.1661q10.4382 -10.4257 25.1741 -10.4257q14.7371 0 25.1644 10.4274t10.4274 25.1644v65h64.9795q14.7372 0 25.165 10.4274q10.4278 10.4274 10.4278 25.1644q0 14.7359 -10.4262 25.1741
q-10.4262 10.4382 -25.1666 10.4382h-64.9795v65.0205q0 14.7359 -10.4257 25.1736t-25.1661 10.4377q-14.7394 0 -25.1758 -10.4361q-10.4365 -10.4361 -10.4365 -25.1752v-65.0205h-65.0205q-14.7392 0 -25.1752 -10.4365q-10.4361 -10.4365 -10.4361 -25.1758
q0 -14.7405 10.4377 -25.1661q10.4377 -10.4257 25.1736 -10.4257h65.0205v-65zM499.075 409.619v75.4482v10.4492h-10.4492h-75.4697q-6.08362 0 -10.3987 4.31097q-4.31513 4.31097 -4.31513 10.3834q0 6.07617 4.31885 10.395t10.395 4.31885h75.4697h10.4492v10.4492
v75.4697q0 6.07617 4.31885 10.395t10.395 4.31885q6.07239 0 10.3834 -4.31513q4.31097 -4.31513 4.31097 -10.3987v-75.4697v-10.4492h10.4492h75.4277q6.07239 0 10.3834 -4.31513q4.31097 -4.31513 4.31097 -10.3987q0 -6.07983 -4.30725 -10.3871t-10.3871 -4.30725
h-75.4277h-10.4492v-10.4492v-75.4482q0 -6.07983 -4.30725 -10.3871t-10.3871 -4.30725q-6.08362 0 -10.3987 4.31097q-4.31513 4.31097 -4.31513 10.3834zM488.636 409.621v75.4414h-75.4834q-10.4121 0 -17.7812 7.36914t-7.36914 17.7812q0 10.4128 7.3691 17.7821
t17.7813 7.3693h75.4834v75.4834q0 10.4122 7.3693 17.7813q7.3693 7.3691 17.7821 7.3691q10.4121 0 17.7812 -7.36914t7.36914 -17.7812v-75.4834h75.4209q10.4122 0 17.7813 -7.3693t7.3691 -17.7821q0 -10.4121 -7.36914 -17.7812t-17.7812 -7.36914h-75.4209v-75.4414
q0 -10.4128 -7.3691 -17.7821q-7.3691 -7.3693 -17.7813 -7.3693q-10.4128 0 -17.7821 7.36926t-7.36926 17.7821z" />
  </font>
</defs>
</svg>
