<svg xmlns="http://www.w3.org/2000/svg" width="24.04" height="24.04" viewBox="0 0 24.04 24.04">
  <g id="Edit" transform="translate(-62.961)">
    <path id="Path_216" data-name="Path 216" d="M274.46,9.327c-.366-.055-.741-.108-1.119-.158a9.863,9.863,0,0,0-.759-1.831c.231-.3.459-.606.68-.9a1.687,1.687,0,0,0-.164-2.183L271.636,2.79a1.687,1.687,0,0,0-2.183-.164c-.3.221-.6.449-.9.68a9.854,9.854,0,0,0-1.831-.759c-.051-.378-.1-.754-.158-1.119A1.687,1.687,0,0,0,264.9,0h-2.066a1.687,1.687,0,0,0-1.66,1.427c-.055.365-.108.741-.158,1.119a9.856,9.856,0,0,0-1.831.759c-.3-.231-.6-.459-.9-.68a1.687,1.687,0,0,0-2.183.164l-1.461,1.46a1.688,1.688,0,0,0-.164,2.183c.22.3.448.6.68.9a9.867,9.867,0,0,0-.759,1.831c-.378.051-.754.1-1.119.158a1.687,1.687,0,0,0-1.428,1.66v2.066a1.687,1.687,0,0,0,1.427,1.66c.366.055.741.108,1.119.158a9.866,9.866,0,0,0,.759,1.831c-.231.3-.459.605-.68.9a1.687,1.687,0,0,0,.164,2.183L256.1,21.25a1.687,1.687,0,0,0,2.183.164c.3-.221.6-.449.9-.68a9.858,9.858,0,0,0,1.832.759c.05.378.1.754.158,1.119a1.687,1.687,0,0,0,1.66,1.428H264.9a1.687,1.687,0,0,0,1.66-1.428c.055-.366.108-.741.158-1.119a9.845,9.845,0,0,0,1.831-.759c.3.231.6.459.9.68a1.687,1.687,0,0,0,2.183-.164l1.461-1.461a1.687,1.687,0,0,0,.164-2.183c-.221-.3-.449-.6-.68-.9a9.867,9.867,0,0,0,.759-1.831c.378-.051.754-.1,1.119-.158a1.687,1.687,0,0,0,1.428-1.66V10.987A1.688,1.688,0,0,0,274.46,9.327Zm-.584,3.438c-.332.048-.671.095-1.01.139a1.673,1.673,0,0,0-1.4,1.215,7.831,7.831,0,0,1-.74,1.786,1.674,1.674,0,0,0,.131,1.851c.208.271.415.544.616.813l-1.054,1.054c-.27-.2-.543-.408-.813-.616a1.674,1.674,0,0,0-1.851-.131,7.837,7.837,0,0,1-1.786.74,1.673,1.673,0,0,0-1.215,1.4c-.044.34-.091.679-.139,1.01h-1.49c-.048-.332-.095-.671-.139-1.01a1.673,1.673,0,0,0-1.215-1.4,7.831,7.831,0,0,1-1.786-.74,1.673,1.673,0,0,0-1.851.131c-.27.208-.543.415-.813.616l-1.054-1.054c.2-.27.408-.542.617-.813a1.674,1.674,0,0,0,.131-1.851,7.835,7.835,0,0,1-.74-1.786,1.673,1.673,0,0,0-1.4-1.215c-.34-.044-.679-.091-1.011-.139v-1.49c.332-.048.671-.095,1.01-.139a1.673,1.673,0,0,0,1.4-1.215,7.827,7.827,0,0,1,.74-1.786,1.674,1.674,0,0,0-.131-1.851c-.209-.271-.415-.544-.616-.813l1.054-1.054c.27.2.543.408.813.616a1.673,1.673,0,0,0,1.851.131,7.838,7.838,0,0,1,1.786-.74,1.673,1.673,0,0,0,1.215-1.4c.044-.34.091-.678.139-1.01h1.491c.048.332.095.671.139,1.01a1.673,1.673,0,0,0,1.215,1.4,7.834,7.834,0,0,1,1.786.74,1.674,1.674,0,0,0,1.851-.131c.27-.208.543-.415.813-.616l1.054,1.054c-.2.269-.408.542-.616.813a1.674,1.674,0,0,0-.131,1.851,7.84,7.84,0,0,1,.74,1.786,1.673,1.673,0,0,0,1.4,1.215c.34.044.679.091,1.011.139v1.49Z" transform="translate(-188.886)"/>
    <path id="Path_217" data-name="Path 217" d="M339.811,83.675a4.288,4.288,0,1,0,4.288,4.288A4.293,4.293,0,0,0,339.811,83.675Zm0,6.67a2.382,2.382,0,1,1,2.382-2.382A2.385,2.385,0,0,1,339.811,90.345Z" transform="translate(-264.829 -75.943)"/>
  </g>
</svg>
