<svg xmlns="http://www.w3.org/2000/svg" width="25" height="25" viewBox="0 0 25 25">
  <path id="Public" d="M12.5,0A12.5,12.5,0,1,0,25,12.5,12.514,12.514,0,0,0,12.5,0ZM8.436,2.419A12.67,12.67,0,0,0,6.722,5.855a11.627,11.627,0,0,1-2.007-.932A10.909,10.909,0,0,1,8.436,2.419ZM3.657,6.187a13.177,13.177,0,0,0,2.62,1.236,21.827,21.827,0,0,0-.556,4.262H1.661A10.806,10.806,0,0,1,3.657,6.187Zm0,12.627a10.806,10.806,0,0,1-2-5.5h4.06a21.826,21.826,0,0,0,.556,4.262A13.181,13.181,0,0,0,3.657,18.813Zm1.058,1.264a11.627,11.627,0,0,1,2.007-.932,12.67,12.67,0,0,0,1.714,3.435A10.906,10.906,0,0,1,4.715,20.077Zm6.969,3.142C10,22.6,8.866,20.388,8.285,18.683a17.95,17.95,0,0,1,3.4-.459Zm0-6.627a19.56,19.56,0,0,0-3.843.524,20.209,20.209,0,0,1-.49-3.8h4.333v3.277Zm0-4.908H7.352a20.2,20.2,0,0,1,.49-3.8,19.56,19.56,0,0,0,3.843.524Zm0-4.909a17.951,17.951,0,0,1-3.4-.459c.581-1.7,1.715-3.918,3.4-4.536Zm9.658-.589a10.806,10.806,0,0,1,2,5.5h-4.06a21.826,21.826,0,0,0-.556-4.262A13.181,13.181,0,0,0,21.343,6.187ZM20.285,4.923a11.627,11.627,0,0,1-2.007.932,12.67,12.67,0,0,0-1.714-3.435A10.906,10.906,0,0,1,20.285,4.923ZM13.315,1.781c1.683.618,2.818,2.831,3.4,4.536a17.95,17.95,0,0,1-3.4.459v-5Zm0,6.627a19.56,19.56,0,0,0,3.843-.524,20.209,20.209,0,0,1,.49,3.8H13.315Zm0,4.9h4.333a20.259,20.259,0,0,1-.49,3.806,19.56,19.56,0,0,0-3.843-.524Zm0,9.909v-5a17.951,17.951,0,0,1,3.4.459C16.134,20.387,15,22.6,13.315,23.219Zm3.249-.638a12.67,12.67,0,0,0,1.714-3.435,11.628,11.628,0,0,1,2.007.932A10.908,10.908,0,0,1,16.564,22.581Zm4.779-3.767a13.178,13.178,0,0,0-2.62-1.236,21.883,21.883,0,0,0,.556-4.267h4.06A10.824,10.824,0,0,1,21.343,18.813Z"/>
</svg>
