<svg xmlns="http://www.w3.org/2000/svg" width="18" height="17.571" viewBox="0 0 18 17.571">
  <path id="Add_User" data-name="Add User" d="M619.649,247.571v-2.883H616.7v-1.373h2.947v-2.883h1.4v2.883H624v1.373h-2.947v2.883Zm-13.649,0a8.634,8.634,0,0,1,2.631-6.213,8.986,8.986,0,0,1,3.414-2.094,5.047,5.047,0,0,1-2.255-4.185,5.194,5.194,0,1,1,5.193,5.079,7.506,7.506,0,0,0-7.579,7.413Zm5.193-12.492a3.79,3.79,0,1,0,3.789-3.707A3.753,3.753,0,0,0,611.193,235.079Z" transform="translate(-606 -230)" fill="#fff"/>
</svg>
