<svg xmlns="http://www.w3.org/2000/svg" width="71.829" height="70" viewBox="0 0 71.829 70">
  <path id="Add_User" data-name="Add User" d="M660.467,300V288.515H648.706v-5.469h11.761V271.562h5.6v11.484h11.761v5.469H666.068V300ZM606,300a34.369,34.369,0,0,1,10.5-24.75,35.87,35.87,0,0,1,13.622-8.342,20.1,20.1,0,0,1-9-16.673,20.728,20.728,0,1,1,20.722,20.234c-16.676,0-30.243,13.248-30.243,29.531Zm20.724-49.765a15.126,15.126,0,1,0,15.121-14.766A14.964,14.964,0,0,0,626.723,250.235Z" transform="translate(-606 -229.999)"/>
</svg>
