<svg xmlns="http://www.w3.org/2000/svg" width="45" height="75" viewBox="0 0 90 150"><defs><clipPath id="wwhqa"><path fill="#fff" d="M20 150c-10 0-20-10-20-20V20C0 10 10 0 20 0h50c10 0 20 10 20 20v110c0 10-10 20-20 20z"/></clipPath><clipPath id="wwhqb"><path fill="#fff" d="M37 129a8 8 0 1 1 16 0 8 8 0 0 1-16 0z"/></clipPath></defs><g><g><g><path fill="none" stroke="#000" stroke-miterlimit="50" stroke-width="6" d="M20 150c-10 0-20-10-20-20V20C0 10 10 0 20 0h50c10 0 20 10 20 20v110c0 10-10 20-20 20z" clip-path="url(&quot;#wwhqa&quot;)"/></g><g><path fill="#fff" d="M37 129a8 8 0 1 1 16 0 8 8 0 0 1-16 0z"/><path fill="none" stroke="#000" stroke-miterlimit="50" stroke-width="6" d="M37 129a8 8 0 1 1 16 0 8 8 0 0 1-16 0z" clip-path="url(&quot;#wwhqb&quot;)"/></g><g><g><g><path fill="none" stroke="#000" stroke-linecap="round" stroke-miterlimit="50" stroke-width="3" d="M55.5 84.5h10"/></g><g><path fill="none" stroke="#000" stroke-linecap="round" stroke-miterlimit="50" stroke-width="3" d="M65.5 84.5v-10"/></g></g><g><g><path fill="none" stroke="#000" stroke-linecap="round" stroke-miterlimit="50" stroke-width="3" d="M35.5 84.5h-10"/></g><g><path fill="none" stroke="#000" stroke-linecap="round" stroke-miterlimit="50" stroke-width="3" d="M25.5 84.5v-10"/></g></g><g><g><path fill="none" stroke="#000" stroke-linecap="round" stroke-miterlimit="50" stroke-width="3" d="M55.5 44.5h10"/></g><g><path fill="none" stroke="#000" stroke-linecap="round" stroke-miterlimit="50" stroke-width="3" d="M65.5 44.5v10"/></g></g><g><g><path fill="none" stroke="#000" stroke-linecap="round" stroke-miterlimit="50" stroke-width="3" d="M35.5 44.5h-10"/></g><g><path fill="none" stroke="#000" stroke-linecap="round" stroke-miterlimit="50" stroke-width="3" d="M25.5 44.5v10"/></g></g></g></g></g></svg>