<svg xmlns="http://www.w3.org/2000/svg" width="47" height="47.001" viewBox="0 0 47 47.001">
  <g id="Group_70" data-name="Group 70" transform="translate(-0.007 0)">
    <path id="Path_250" data-name="Path 250" d="M19.491,197.471l-5.538,5.538A5.875,5.875,0,0,1,5.644,194.7l11.079-11.079a5.873,5.873,0,0,1,8.307,0,1.958,1.958,0,1,0,2.77-2.77,9.79,9.79,0,0,0-13.846,0L2.874,191.933a9.791,9.791,0,1,0,13.848,13.846l5.538-5.538a1.958,1.958,0,1,0-2.77-2.77Z" transform="translate(0 -161.648)" fill="#585858"/>
    <path id="Path_251" data-name="Path 251" d="M217.541,2.867a9.793,9.793,0,0,0-13.848,0l-6.645,6.645a1.958,1.958,0,1,0,2.77,2.77l6.645-6.645a5.875,5.875,0,0,1,8.309,8.307L202.586,26.129a5.873,5.873,0,0,1-8.307,0,1.958,1.958,0,1,0-2.77,2.77,9.79,9.79,0,0,0,13.846,0l12.185-12.185A9.79,9.79,0,0,0,217.541,2.867Z" transform="translate(-173.402)" fill="#585858"/>
  </g>
</svg>
