<svg xmlns="http://www.w3.org/2000/svg" width="11.994" height="16.993" viewBox="0 0 11.994 16.993">
  <g id="Group_6" data-name="Group 6" transform="translate(-688.505 -1398.503)">
    <path id="Arrow" d="M380.57,1964a1.4,1.4,0,0,0,.984-.409,1.53,1.53,0,0,0,.051-2.1l-3.2-3.5,3.193-3.473a1.529,1.529,0,0,0-.045-2.1,1.39,1.39,0,0,0-2.02.047l-4.135,4.5a1.531,1.531,0,0,0,0,2.052l4.135,4.525A1.4,1.4,0,0,0,380.57,1964Z" transform="translate(2652.502 1023.497) rotate(90)"/>
    <path id="Arrow-2" data-name="Arrow" d="M5.564,0a1.4,1.4,0,0,1,.984.409A1.53,1.53,0,0,1,6.6,2.51l-3.2,3.5L6.6,9.48a1.529,1.529,0,0,1-.045,2.1,1.39,1.39,0,0,1-2.02-.047L.4,7.038a1.531,1.531,0,0,1,0-2.052L4.528.462A1.4,1.4,0,0,1,5.564,0Z" transform="translate(688.505 1415.496) rotate(-90)"/>
  </g>
</svg>
