<svg xmlns="http://www.w3.org/2000/svg" width="109.088" height="105.624" viewBox="0 0 109.088 105.624">
  <path id="Icon" d="M99.679,104.624c0-24.342-20.381-44.14-45.424-44.14h-.411c-25.049,0-45.426,19.8-45.426,44.14H0A51.231,51.231,0,0,1,15.772,67.63,53.926,53.926,0,0,1,36.229,55.161,30.006,30.006,0,0,1,22.714,30.238C22.714,13.567,36.679,0,53.844,0h.411C71.407,0,85.372,13.567,85.372,30.238A30.006,30.006,0,0,1,71.859,55.161,53.837,53.837,0,0,1,92.314,67.63a51.236,51.236,0,0,1,15.773,36.994ZM31.537,30.238c0,12.109,10.077,21.966,22.51,22.073,12.428-.107,22.5-9.964,22.5-22.073S66.475,8.28,54.047,8.173C41.614,8.28,31.537,18.137,31.537,30.238Z" transform="translate(0.5 0.5)" fill="#b8b8ba" stroke="rgba(0,0,0,0)" stroke-miterlimit="10" stroke-width="1"/>
</svg>
