<svg xmlns="http://www.w3.org/2000/svg" width="105.797" height="109.859" viewBox="0 0 105.797 109.859">
  <g id="Picture" transform="translate(-171.528 -1414.131)">
    <g id="Form" transform="translate(171.528 1437.523) rotate(-15)" fill="#f5f5f5" stroke="#000" stroke-width="2">
      <rect width="61.818" height="80" stroke="none"/>
      <rect x="1" y="1" width="59.818" height="78" fill="none"/>
    </g>
    <g id="Form-2" data-name="Form" transform="translate(208.045 1414.131) rotate(5)" fill="#f5f5f5" stroke="#000" stroke-width="2">
      <rect width="69.545" height="90" stroke="none"/>
      <rect x="1" y="1" width="67.545" height="88" fill="none"/>
    </g>
    <g id="Form-3" data-name="Form" transform="translate(190.99 1423.99)" fill="#f5f5f5" stroke="#000" stroke-width="2">
      <rect width="75" height="100" stroke="none"/>
      <rect x="1" y="1" width="73" height="98" fill="none"/>
    </g>
    <g id="user" transform="translate(148.873 1450)">
      <g id="Group_18" data-name="Group 18" transform="translate(61.127)">
        <path id="Path_245" data-name="Path 245" d="M90.5,31.168a6.332,6.332,0,0,1-6.385-5.762,10.829,10.829,0,0,0,2.5-2.467,15,15,0,0,0,2.7-7.049,1.074,1.074,0,0,0,.271-.382,11.632,11.632,0,0,0,.9-4.527C90.487,4.926,85.919,0,80.3,0a9.453,9.453,0,0,0-4.239,1.006,7.448,7.448,0,0,0-1.5.269,8.42,8.42,0,0,0-5.284,4.814,11.957,11.957,0,0,0-.593,7.848,12.642,12.642,0,0,0,.548,1.662,1.074,1.074,0,0,0,.254.369A13.5,13.5,0,0,0,74.677,25.4a6.334,6.334,0,0,1-6.385,5.771,7.427,7.427,0,0,0-7.165,7.413v8.338A1.081,1.081,0,0,0,62.208,48H96.585a1.081,1.081,0,0,0,1.081-1.081V38.581A7.427,7.427,0,0,0,90.5,31.168ZM75.168,3.352a5.326,5.326,0,0,1,1.238-.2,1.08,1.08,0,0,0,.454-.123A7.344,7.344,0,0,1,80.3,2.162c4.423,0,8.021,3.957,8.021,8.82,0,.146,0,.291-.011.436A4.712,4.712,0,0,0,84.949,10H77.583a2.012,2.012,0,0,1-1.869-1.262,1.325,1.325,0,0,0-2.511.165,10.025,10.025,0,0,1-2.446,4.376C69.671,8.813,71.632,4.373,75.168,3.352Zm-.94,18.693a12.711,12.711,0,0,1-2.619-6.578,12.247,12.247,0,0,0,3.144-4.406,4.218,4.218,0,0,0,.335.278,4.143,4.143,0,0,0,2.5.827h7.366a2.568,2.568,0,0,1,2.341,1.52c0,.008,0,.015,0,.023,0,6.1-3.54,11.065-7.891,11.065A6.759,6.759,0,0,1,74.227,22.044Zm2.483,4.415a7.865,7.865,0,0,0,5.373.006,8.463,8.463,0,0,0,3.143,5.1l-5.675,8.082a.187.187,0,0,1-.306,0l-5.677-8.084A8.465,8.465,0,0,0,76.711,26.459ZM95.5,45.838H63.289V38.581a5.263,5.263,0,0,1,5.257-5.257,9.265,9.265,0,0,0,3.153-.667l5.778,8.228a2.35,2.35,0,0,0,1.922,1h0a2.351,2.351,0,0,0,1.922-1L87.1,32.658a8.9,8.9,0,0,0,3.15.666A5.263,5.263,0,0,1,95.5,38.581Z" transform="translate(-61.127)"/>
      </g>
    </g>
  </g>
</svg>
