<svg id="Time" xmlns="http://www.w3.org/2000/svg" width="28" height="28" viewBox="0 0 28 28">
  <rect id="base" width="28" height="28" rx="14" fill="#fd6256"/>
  <g id="Arrows" transform="translate(0.451 1.413)">
    <path id="stopwatch" d="M16.811,9.639a1.35,1.35,0,0,1,0,1.909l-5.3,5.3A1.35,1.35,0,1,1,9.6,14.94l5.3-5.3A1.35,1.35,0,0,1,16.811,9.639Zm0,0" transform="translate(-5.497 10.217) rotate(-45)" fill="#fff"/>
    <path id="stopwatch-2" data-name="stopwatch" d="M7.6,7.6A1.35,1.35,0,0,0,7.6,5.7L2.3.4A1.35,1.35,0,0,0,.4,2.3L5.7,7.6A1.35,1.35,0,0,0,7.6,7.6Zm0,0" transform="matrix(-0.985, 0.174, -0.174, -0.985, 20.84, 19.488)" fill="#fff"/>
  </g>
</svg>
