<svg xmlns="http://www.w3.org/2000/svg" width="37.191" height="44" viewBox="0 0 37.191 44">
  <path id="stopwatch" d="M32.9,13.525,34.627,11.8A1.716,1.716,0,0,0,32.2,9.372L30.475,11.1a18.419,18.419,0,0,0-10.163-4.21V3.433h1.659a1.717,1.717,0,0,0,0-3.433H15.219a1.717,1.717,0,0,0,0,3.433h1.659V6.888A18.595,18.595,0,1,0,32.9,13.525ZM18.6,40.567A15.162,15.162,0,1,1,33.758,25.4,15.18,15.18,0,0,1,18.6,40.567ZM26.55,17.45a1.716,1.716,0,0,1,0,2.427l-6.741,6.741a1.716,1.716,0,0,1-2.427-2.427l6.741-6.741A1.717,1.717,0,0,1,26.55,17.45Zm0,0" transform="translate(0 0)"/>
</svg>
