<svg id="Page-1" xmlns="http://www.w3.org/2000/svg" width="63.661" height="40.925" viewBox="0 0 63.661 40.925">
  <g id="Artboard">
    <g id="_-" data-name="-">
      <path id="Shape" d="M20.322,21a3.788,3.788,0,0,0-1.43.269l9.009,9.4,9.109,9.566.166.2.266.269.266.269.532.572,7.812,8.117a7.64,7.64,0,0,0,.8.585,3.009,3.009,0,0,0,1.214.385,2.857,2.857,0,0,0,1.336-.319,5.138,5.138,0,0,0,.8-.65L59.25,40.2l9.142-9.532,8.809-9.2A3.827,3.827,0,0,0,75.34,21H20.322Zm-2.759,1.145A5.345,5.345,0,0,0,16,26.018V56.872a5.489,5.489,0,0,0,1.064,3.3l1.263-1.213L27.735,49.7l8.344-8.185-.166-.2-9.142-9.532-9.142-9.566-.066-.067Zm60.835.3-8.909,9.33L60.38,41.311l-.166.168L68.89,50,78.3,59.264l.565.539a5.6,5.6,0,0,0,.8-2.931V26.018a5.455,5.455,0,0,0-1.263-3.57ZM37.143,42.624l-8.31,8.185-9.441,9.263-1.2,1.179a3.879,3.879,0,0,0,2.128.674H75.34a3.926,3.926,0,0,0,2.493-.943l-.6-.606-9.441-9.263-8.676-8.488-7.812,8.151a9.045,9.045,0,0,1-1.118.792,4.961,4.961,0,0,1-2.124.564,5.058,5.058,0,0,1-2.113-.631,4.146,4.146,0,0,1-.895-.657l-7.913-8.22Z" transform="translate(-16 -21)" fill="#585858"/>
    </g>
  </g>
</svg>
