<svg xmlns="http://www.w3.org/2000/svg" width="138" height="207" viewBox="0 0 138 207"><g><g><g><text dominant-baseline="text-before-edge" style="line-height:37.999996185302734px;font-kerning:normal" font-family="'Montserrat','Montserrat-Bold'" font-size="28" font-style="none" font-weight="700" transform="translate(21 173)"><tspan>Oops...</tspan></text></g></g><g><path d="M120.598 94.706H75.677v-22.93h44.92l11.466 11.465zm-38.042 34.396c0 1.628-5.228 4.586-13.758 4.586s-13.759-2.958-13.759-4.586c0-1.078 2.454-2.89 6.948-3.875a6.845 6.845 0 0 0 13.621 0c4.495.986 6.948 2.797 6.948 3.875zM16.998 71.776L5.532 60.31l11.466-11.465h44.92v22.93zM71.09 18.714v105.802a2.293 2.293 0 1 1-4.586 0V18.714a8.349 8.349 0 0 0 4.586 0zM68.798 5.277a4.586 4.586 0 1 1-4.586 4.586 4.6 4.6 0 0 1 4.586-4.586zm6.879 20.638h44.92l11.466 11.465-11.465 11.465H75.677zm47.49 41.94a2.369 2.369 0 0 0-1.629-.665H75.677V53.43h45.861a2.369 2.369 0 0 0 1.628-.665l13.758-13.758a2.311 2.311 0 0 0 0-3.256l-13.758-13.759a2.369 2.369 0 0 0-1.628-.665H75.677v-5.457a9.172 9.172 0 1 0-13.758 0v28.388H16.058a2.369 2.369 0 0 0-1.629.665L.671 58.682a2.311 2.311 0 0 0 0 3.257L14.43 75.697c.438.422 1.02.66 1.629.665h45.86v44.233c-7.016 1.307-11.465 4.517-11.465 8.507 0 6.03 9.218 9.172 18.345 9.172 9.126 0 18.344-3.141 18.344-9.172 0-3.99-4.448-7.2-11.465-8.507V99.292h45.861a2.369 2.369 0 0 0 1.628-.665l13.758-13.758a2.311 2.311 0 0 0 0-3.256z"/></g></g></svg>