<svg xmlns="http://www.w3.org/2000/svg" width="54" height="54" viewBox="0 0 54 54">
  <g id="Group_5" data-name="Group 5" transform="translate(-130 -1379)">
    <circle id="Placeholder" cx="27" cy="27" r="27" transform="translate(130 1379)" fill="#dad9dd" opacity="0.3"/>
    <g id="time" transform="translate(145 1392.312)">
      <g id="Layer_2_16_" transform="translate(0 1.688)">
        <g id="Group_1" data-name="Group 1">
          <path id="Path_12" data-name="Path 12" d="M254.056,423.184c-.2.049-.4.093-.6.13a.965.965,0,1,0,.352,1.9c.239-.044.479-.1.715-.155a.965.965,0,0,0-.466-1.873Z" transform="translate(-239.63 -401.408)"/>
          <path id="Path_13" data-name="Path 13" d="M412.74,138.111a.965.965,0,0,0,1.832-.607c-.076-.231-.161-.462-.251-.687a.965.965,0,1,0-1.792.716C412.6,137.723,412.676,137.917,412.74,138.111Z" transform="translate(-391.177 -129.269)"/>
          <path id="Path_14" data-name="Path 14" d="M321.872,394.071c-.17.112-.346.221-.523.323a.965.965,0,1,0,.964,1.672c.21-.121.42-.25.622-.385a.965.965,0,0,0-1.064-1.61Z" transform="translate(-304.31 -373.673)"/>
          <path id="Path_15" data-name="Path 15" d="M429.563,208.239a.965.965,0,1,0-1.928.076c.008.2.01.41.005.613a.965.965,0,1,0,1.929.043C429.575,208.728,429.573,208.481,429.563,208.239Z" transform="translate(-405.568 -196.701)"/>
          <path id="Path_16" data-name="Path 16" d="M378.721,344.262a.965.965,0,0,0-1.351.193c-.122.163-.251.324-.384.48a.965.965,0,0,0,.109,1.36c.023.02.047.038.071.055a.965.965,0,0,0,1.29-.164c.158-.185.311-.378.458-.573A.965.965,0,0,0,378.721,344.262Z" transform="translate(-357.316 -326.402)"/>
          <path id="Path_17" data-name="Path 17" d="M415.226,279.4a.965.965,0,0,0-1.209.632c-.061.194-.129.389-.2.581a.965.965,0,0,0,1.8.687c.087-.227.167-.46.24-.691A.965.965,0,0,0,415.226,279.4Z" transform="translate(-392.402 -265.024)"/>
          <path id="Path_18" data-name="Path 18" d="M10.217,23.6a9.965,9.965,0,0,1-2.475-.787L7.715,22.8c-.185-.087-.37-.18-.549-.278l0,0a10.294,10.294,0,0,1-.96-.6A10.07,10.07,0,0,1,6.245,5.428L6.28,5.4a10.087,10.087,0,0,1,11.3-.091L16.831,6.4c-.21.3-.081.524.286.491L20.392,6.6A.54.54,0,0,0,20.88,5.9L20,2.727c-.1-.355-.351-.4-.56-.095l-.756,1.092A11.917,11.917,0,0,0,9.952,1.867q-.463.08-.914.2H9.033L9,2.073A11.9,11.9,0,0,0,2.4,6.5c-.014.016-.028.033-.041.05-.055.074-.109.149-.162.225-.087.124-.173.25-.255.377-.01.015-.018.031-.027.046a11.9,11.9,0,0,0-1.9,7.017c0,.008,0,.016,0,.025.011.242.03.487.056.729,0,.016,0,.03.007.046.027.243.061.486.1.73A11.909,11.909,0,0,0,3.538,22.2l.012.013,0,0A12.159,12.159,0,0,0,5.092,23.5a11.9,11.9,0,0,0,4.785,2,.965.965,0,0,0,.341-1.9Z" transform="translate(0 -1.688)"/>
          <path id="Path_19" data-name="Path 19" d="M206.768,83.2a.781.781,0,0,0-.781.781v7.779l7.114,3.678a.781.781,0,0,0,.717-1.387l-6.27-3.241V83.979A.781.781,0,0,0,206.768,83.2Z" transform="translate(-195.358 -78.992)"/>
        </g>
      </g>
    </g>
  </g>
</svg>
