<svg xmlns="http://www.w3.org/2000/svg" width="25" height="46.24" viewBox="0 0 25 46.24">
  <g id="facebook-logo" transform="translate(-22.077 1)">
    <path id="Path_8" data-name="Path 8" d="M46.136.01l-6-.01C33.4,0,29.049,4.467,29.049,11.38v5.247H23.02a.943.943,0,0,0-.943.943v7.6a.943.943,0,0,0,.943.943h6.029V45.3a.943.943,0,0,0,.943.943h7.866A.943.943,0,0,0,38.8,45.3V26.115H45.85a.943.943,0,0,0,.943-.943l0-7.6a.944.944,0,0,0-.943-.943H38.8V12.179c0-2.138.509-3.223,3.294-3.223h4.039a.943.943,0,0,0,.942-.943V.952A.943.943,0,0,0,46.136.01Z" transform="translate(0 -1)" fill="#fff"/>
  </g>
</svg>
