<svg xmlns="http://www.w3.org/2000/svg" width="17.366" height="32.12" viewBox="0 0 17.366 32.12">
  <g id="facebook-logo" transform="translate(-22.077 1)">
    <path id="Path_8" data-name="Path 8" d="M38.789.007,34.624,0c-4.68,0-7.7,3.1-7.7,7.9v3.645H22.732a.655.655,0,0,0-.655.655v5.281a.655.655,0,0,0,.655.655H26.92V31.465a.655.655,0,0,0,.655.655h5.464a.655.655,0,0,0,.655-.655V18.14h4.9a.655.655,0,0,0,.655-.655l0-5.281a.655.655,0,0,0-.655-.655h-4.9V8.46c0-1.485.354-2.239,2.288-2.239h2.806a.655.655,0,0,0,.655-.655V.662A.655.655,0,0,0,38.789.007Z" transform="translate(0 -1)"/>
  </g>
</svg>
