<svg xmlns="http://www.w3.org/2000/svg" width="100" height="118" viewBox="0 0 100 118"><defs><clipPath id="uze2a"><path fill="#fff" d="M9 11c0-1 1-2 2-2h79c1 0 2 1 2 2v80c0 1-1 2-2 2H11c-1 0-2-1-2-2z"/></clipPath><clipPath id="uze2b"><path fill="#fff" d="M0 2c0-1 1-2 2-2h96c1 0 2 1 2 2v114c0 1-1 2-2 2H2c-1 0-2-1-2-2z"/></clipPath></defs><g><g><g><path fill="none" stroke="#000" stroke-miterlimit="50" stroke-width="6" d="M9 11c0-1 1-2 2-2h79c1 0 2 1 2 2v80c0 1-1 2-2 2H11c-1 0-2-1-2-2z" clip-path="url(&quot;#uze2a&quot;)"/></g><g><path fill="none" stroke="#000" stroke-miterlimit="50" stroke-width="6" d="M0 2c0-1 1-2 2-2h96c1 0 2 1 2 2v114c0 1-1 2-2 2H2c-1 0-2-1-2-2z" clip-path="url(&quot;#uze2b&quot;)"/></g><g><path fill="none" stroke="#000" stroke-linecap="round" stroke-miterlimit="50" stroke-width="3" d="M10.5 104.5h80"/></g><g><path fill="none" stroke="#000" stroke-linecap="round" stroke-miterlimit="50" stroke-width="3" d="M11.45 74.543v0L29.742 56.72v0l22.538 34.325v0"/></g><g><path fill="none" stroke="#000" stroke-linecap="round" stroke-miterlimit="50" stroke-width="3" d="M39.645 71.62v0l26.404-24.99v0l23.857 35.74v0"/></g></g></g></svg>