<svg xmlns="http://www.w3.org/2000/svg" width="79" height="79" viewBox="0 0 79 79">
  <g id="Google-Button" transform="translate(-3 -2.7)">
    <g id="btn_google_light_normal" transform="translate(3 3)">
      <g id="button">
        <g id="button-bg">
          <rect id="Rectangle_35" data-name="Rectangle 35" width="79" height="79" rx="2" transform="translate(0 -0.3)" fill="#fff"/>
          <rect id="Rectangle_36" data-name="Rectangle 36" width="79" height="79" rx="2" transform="translate(0 -0.3)" fill="none"/>
          <rect id="Rectangle_37" data-name="Rectangle 37" width="79" height="79" rx="2" transform="translate(0 -0.3)" fill="none"/>
          <rect id="Rectangle_38" data-name="Rectangle 38" width="79" height="79" rx="2" transform="translate(0 -0.3)" fill="none"/>
        </g>
      </g>
      <g id="logo_googleg_48dp" transform="translate(21.527 21.527)">
        <path id="Shape" d="M25.909,10.966a20.25,20.25,0,0,0-.32-3.6H9v6.813h9.479a8.1,8.1,0,0,1-3.515,5.316v4.419h5.692a17.177,17.177,0,0,0,5.252-12.946Z" transform="translate(8.613 7.047)" fill="#4285f4" fill-rule="evenodd"/>
        <path id="Shape-2" data-name="Shape" d="M16.7,24.977a16.815,16.815,0,0,0,11.657-4.267L22.661,16.29A10.586,10.586,0,0,1,16.7,17.971,10.5,10.5,0,0,1,6.842,10.71H.957v4.563a17.606,17.606,0,0,0,15.74,9.7Z" transform="translate(0.916 10.25)" fill="#34a853" fill-rule="evenodd"/>
        <path id="Shape-3" data-name="Shape" d="M7.758,16.215a10.413,10.413,0,0,1,0-6.693V4.958H1.873a17.635,17.635,0,0,0,0,15.82l5.884-4.563Z" transform="translate(0 4.745)" fill="#fbbc05" fill-rule="evenodd"/>
        <path id="Shape-4" data-name="Shape" d="M16.7,7.005A9.515,9.515,0,0,1,23.43,9.639l5.052-5.052A16.927,16.927,0,0,0,16.7,0,17.606,17.606,0,0,0,.957,9.7l5.884,4.563A10.5,10.5,0,0,1,16.7,7.005Z" transform="translate(0.916)" fill="#ea4335" fill-rule="evenodd"/>
        <path id="Shape-5" data-name="Shape" d="M0,0H35.226V35.226H0Z" fill="none" fill-rule="evenodd"/>
      </g>
    </g>
  </g>
</svg>
