<svg xmlns="http://www.w3.org/2000/svg" width="20" height="20" viewBox="0 0 20 20"><g><g><g><path fill="#4285f4" d="M19.597 10.22c0-.821-.066-1.421-.21-2.043H9.998v3.71h5.51c-.111.922-.711 2.311-2.044 3.244l-.019.125 2.968 2.299.206.02c1.889-1.744 2.977-4.31 2.977-7.354"/></g><g><path fill="#34a853" d="M9.999 19.997c2.7 0 4.966-.888 6.621-2.422l-3.155-2.444c-.844.59-1.978 1-3.466 1-2.644 0-4.889-1.744-5.689-4.155l-.117.01-3.086 2.389-.04.112a9.991 9.991 0 0 0 8.932 5.51"/></g><g><path fill="#fbbc05" d="M4.31 11.976A6.155 6.155 0 0 1 3.978 10c0-.69.122-1.356.322-1.978l-.005-.132-3.125-2.427-.102.048A10.008 10.008 0 0 0 0 10c0 1.61.389 3.133 1.067 4.488l3.244-2.51"/></g><g><path fill="#eb4335" d="M9.999 3.866c1.877 0 3.144.811 3.866 1.489L16.687 2.6C14.954.989 12.698 0 9.999 0a9.991 9.991 0 0 0-8.932 5.51l3.232 2.511c.811-2.41 3.056-4.155 5.7-4.155"/></g></g></g></svg>