<svg id="instagram-logo" xmlns="http://www.w3.org/2000/svg" width="34.06" height="34.06" viewBox="0 0 34.06 34.06">
  <path id="Path_9" data-name="Path 9" d="M24.66,0H9.4A9.41,9.41,0,0,0,0,9.4V24.661a9.41,9.41,0,0,0,9.4,9.4H24.66a9.41,9.41,0,0,0,9.4-9.4V9.4A9.41,9.41,0,0,0,24.66,0Zm6.378,24.661a6.385,6.385,0,0,1-6.378,6.377H9.4a6.384,6.384,0,0,1-6.377-6.377V9.4A6.385,6.385,0,0,1,9.4,3.022H24.66A6.385,6.385,0,0,1,31.038,9.4V24.661Z"/>
  <path id="Path_10" data-name="Path 10" d="M49.744,40.97a8.776,8.776,0,1,0,8.776,8.776A8.786,8.786,0,0,0,49.744,40.97Zm0,14.53A5.754,5.754,0,1,1,55.5,49.746,5.761,5.761,0,0,1,49.744,55.5Z" transform="translate(-32.714 -32.716)"/>
  <path id="Path_11" data-name="Path 11" d="M121.137,28.251a2.215,2.215,0,1,0,1.567.649A2.225,2.225,0,0,0,121.137,28.251Z" transform="translate(-94.963 -22.559)"/>
</svg>
