<svg xmlns="http://www.w3.org/2000/svg" width="20" height="18.334" viewBox="0 0 20 18.334">
  <g id="Group_37" data-name="Group 37" transform="translate(0.346 -5.015)">
    <path id="Path_203" data-name="Path 203" d="M1.667,30.491a5,5,0,0,1,5-5h4.655l-1.077,1.077a.833.833,0,0,0,1.179,1.179l2.5-2.5h0c.019-.019.037-.04.055-.061l.022-.03c.009-.012.018-.023.026-.036s.015-.024.022-.036.014-.022.02-.034.012-.025.018-.038.012-.024.017-.036.009-.025.014-.037.01-.026.014-.04.007-.025.01-.038.007-.027.01-.041,0-.029.007-.044,0-.024.005-.036a.839.839,0,0,0,0-.164c0-.012,0-.024-.005-.036s0-.03-.007-.044-.007-.028-.01-.041-.006-.025-.01-.038-.009-.026-.014-.04-.009-.025-.014-.037-.011-.024-.017-.036-.012-.025-.018-.038-.013-.022-.02-.034-.014-.024-.022-.036-.017-.024-.026-.036l-.022-.03c-.017-.021-.036-.041-.055-.061h0l-2.5-2.5a.833.833,0,0,0-1.179,1.179l1.077,1.077H6.658A6.662,6.662,0,0,0,0,30.491a6.188,6.188,0,0,0,1.821,4.383A.833.833,0,1,0,3,33.7,4.522,4.522,0,0,1,1.667,30.491Z" transform="translate(-0.346 -16.309)" fill="#fff"/>
    <path id="Path_204" data-name="Path 204" d="M163.489,142.165a6.188,6.188,0,0,0-1.821-4.383.833.833,0,0,0-1.179,1.178,4.522,4.522,0,0,1,1.333,3.2,5,5,0,0,1-5,5h-4.655l1.077-1.077a.833.833,0,1,0-1.179-1.179l-2.5,2.5h0q-.029.029-.055.061l-.022.03c-.009.012-.018.023-.026.036s-.015.024-.022.036-.014.022-.02.034-.012.025-.018.038-.012.024-.017.036-.009.025-.014.037-.01.026-.014.04-.007.025-.01.038-.007.027-.01.041,0,.029-.007.044,0,.024-.005.037,0,.054,0,.081h0q0,.041,0,.081c0,.012,0,.024.005.037s0,.029.007.044.007.028.01.041.006.025.01.038.009.027.014.04.009.025.014.037.011.024.017.036.012.025.018.038.013.022.02.034.014.024.022.036.017.024.026.036l.022.03a.821.821,0,0,0,.055.061l2.5,2.5a.833.833,0,0,0,1.179-1.179l-1.077-1.077h4.664A6.662,6.662,0,0,0,163.489,142.165Z" transform="translate(-143.834 -127.983)" fill="#fff"/>
  </g>
</svg>
