<svg id="icon" xmlns="http://www.w3.org/2000/svg" xmlns:xlink="http://www.w3.org/1999/xlink" width="60.209" height="59.989" viewBox="0 0 60.209 59.989">
  <defs>
    <linearGradient id="linear-gradient" x1="0.5" y1="0.068" x2="0.5" y2="0.956" gradientUnits="objectBoundingBox">
      <stop offset="0" stop-color="#0cb6ff"/>
      <stop offset="1" stop-color="#0570ff"/>
    </linearGradient>
  </defs>
  <g id="Artboard" transform="translate(0 0)">
    <g id="_-" data-name="-">
      <g id="facebook-messenger">
        <path id="Path" d="M11.089,50.965V59.04a.949.949,0,0,0,1.418.825l8.059-4.582a1.9,1.9,0,0,1,1.325-.208,43.406,43.406,0,0,0,8.214,1.1c16.627,0,30.1-12.577,30.1-28.089S46.732,0,30.1,0,0,12.576,0,28.089A27.308,27.308,0,0,0,10.624,49.5l-.029-.023A3.244,3.244,0,0,1,11.089,50.965Z" transform="translate(0 0)" fill="url(#linear-gradient)"/>
        <path id="Path-2" data-name="Path" d="M7.683,25.795,18,20.131a1.9,1.9,0,0,1,2.288.355l5.328,5.6a1.9,1.9,0,0,0,2.684.066q.038-.037.075-.075L40.715,12.937a.57.57,0,0,0-.688-.89L29.8,17.623a1.9,1.9,0,0,1-2.266-.339l-5.407-5.526a1.9,1.9,0,0,0-2.684-.029l-.053.053L7,24.9a.569.569,0,0,0,.688.89Z" transform="translate(6.144 10.049)" fill="#fff"/>
      </g>
    </g>
  </g>
</svg>
