<svg xmlns="http://www.w3.org/2000/svg" width="18" height="17.571" viewBox="0 0 18 17.571">
  <g id="icon" transform="translate(-122 -497)">
    <path id="Op_component_1" data-name="Op component 1" d="M614.982,230a5.143,5.143,0,0,0-5.193,5.079,5.048,5.048,0,0,0,2.255,4.186,8.98,8.98,0,0,0-3.413,2.094A8.632,8.632,0,0,0,606,247.571h1.4a7.506,7.506,0,0,1,7.579-7.413,5.08,5.08,0,1,0,0-10.158Zm0,8.785a3.707,3.707,0,1,1,3.789-3.706A3.753,3.753,0,0,1,614.982,238.785Z" transform="translate(-484 267)" fill="#fff"/>
    <path id="Op_component_1-2" data-name="Op component 1" d="M611.193,230a5.143,5.143,0,0,1,5.193,5.079,5.048,5.048,0,0,1-2.255,4.185,8.98,8.98,0,0,1,3.413,2.094,8.633,8.633,0,0,1,2.631,6.212h-1.4a7.506,7.506,0,0,0-7.579-7.413,5.08,5.08,0,1,1,0-10.158Zm0,8.785a3.707,3.707,0,1,0-3.789-3.706A3.753,3.753,0,0,0,611.193,238.785Z" transform="translate(-480.175 267)" fill="#fff"/>
  </g>
</svg>
