<svg xmlns="http://www.w3.org/2000/svg" width="21.98" height="20.149" viewBox="0 0 21.98 20.149">
  <g id="Pairs" transform="translate(0 -21.324)">
    <path id="Path_203" data-name="Path 203" d="M1.832,31.4a5.491,5.491,0,0,1,5.5-5.5h5.115l-1.184,1.184a.916.916,0,0,0,1.3,1.3L15.3,25.635h0c.021-.021.041-.043.06-.067s.016-.022.024-.033.02-.026.029-.039.016-.027.024-.04.015-.024.022-.037.013-.028.02-.042.013-.026.018-.04.01-.027.015-.041.011-.029.015-.044.007-.028.011-.042.008-.03.011-.045.005-.032.007-.049,0-.027.006-.04a.922.922,0,0,0,0-.181c0-.014,0-.027-.006-.04s0-.032-.007-.049-.007-.03-.011-.045-.007-.028-.011-.042-.01-.029-.015-.043-.009-.028-.015-.041-.012-.026-.018-.04-.013-.028-.02-.042-.014-.025-.022-.037-.016-.027-.024-.04-.019-.026-.029-.039-.016-.022-.024-.033-.039-.045-.06-.067h0l-2.748-2.748a.916.916,0,1,0-1.3,1.3l1.184,1.184H7.317A7.322,7.322,0,0,0,0,31.4a6.8,6.8,0,0,0,2,4.816A.916.916,0,1,0,3.3,34.92,4.97,4.97,0,0,1,1.832,31.4Z" transform="translate(0 0)" fill="#b8b8ba"/>
    <path id="Path_204" data-name="Path 204" d="M164.891,142.623a6.8,6.8,0,0,0-2-4.816.916.916,0,0,0-1.3,1.295,4.97,4.97,0,0,1,1.465,3.522,5.491,5.491,0,0,1-5.5,5.5h-5.115l1.184-1.184a.916.916,0,1,0-1.3-1.3l-2.748,2.748h0q-.032.032-.06.067c-.009.011-.016.022-.024.033s-.02.026-.029.039-.016.027-.024.04-.015.024-.022.037-.013.028-.02.042-.013.026-.018.04-.01.027-.015.041-.011.029-.015.044-.007.028-.011.041-.008.03-.011.046-.005.032-.007.048,0,.027-.006.04c0,.03,0,.06,0,.089h0q0,.045,0,.089c0,.014,0,.027.006.04s0,.032.007.048.007.03.011.046.006.028.011.041.01.029.015.044.009.027.015.041.012.027.018.04.013.028.02.041.015.025.022.037.016.027.024.04.019.026.029.039.016.022.024.033a.9.9,0,0,0,.061.067l2.748,2.748a.916.916,0,0,0,1.3-1.3l-1.184-1.184h5.126A7.322,7.322,0,0,0,164.891,142.623Z" transform="translate(-142.911 -111.225)" fill="#b8b8ba"/>
  </g>
</svg>
