<svg xmlns="http://www.w3.org/2000/svg" width="16.987" height="11.994" viewBox="0 0 16.987 11.994">
  <g id="Arrows" transform="translate(-121.006 -490.003)">
    <path id="Right_arrow" data-name="Right arrow" d="M469.43,896a1.4,1.4,0,0,1-.984-.409,1.53,1.53,0,0,1-.051-2.1l3.2-3.5-3.193-3.473a1.529,1.529,0,0,1,.045-2.1,1.39,1.39,0,0,1,2.02.047l4.135,4.5a1.531,1.531,0,0,1,0,2.052l-4.135,4.525A1.4,1.4,0,0,1,469.43,896Z" transform="translate(-337 -394)" fill="#fff"/>
    <path id="Left_arrow" data-name="Left arrow" d="M380.57,896a1.4,1.4,0,0,0,.984-.409,1.53,1.53,0,0,0,.051-2.1l-3.2-3.5,3.193-3.473a1.529,1.529,0,0,0-.045-2.1,1.39,1.39,0,0,0-2.02.047l-4.135,4.5a1.531,1.531,0,0,0,0,2.052l4.135,4.525A1.4,1.4,0,0,0,380.57,896Z" transform="translate(-254 -394)" fill="#fff"/>
  </g>
</svg>
