<svg xmlns="http://www.w3.org/2000/svg" width="39" height="41.999" viewBox="0 0 39 41.999">
  <path id="Share" d="M703.687,264.512a7.314,7.314,0,0,1,.343-2.217l-10.807-6.159a7.718,7.718,0,0,1-5.566,2.351,7.489,7.489,0,1,1,0-14.975,7.718,7.718,0,0,1,5.565,2.35l10.8-6.166a7.31,7.31,0,0,1-.34-2.209,7.659,7.659,0,1,1,7.656,7.488,7.717,7.717,0,0,1-5.565-2.35l-10.8,6.166a7.346,7.346,0,0,1,0,4.416l10.811,6.161a7.718,7.718,0,0,1,5.558-2.344,7.489,7.489,0,1,1-7.656,7.488Zm3.469,0a4.188,4.188,0,1,0,4.187-4.1,4.211,4.211,0,0,0-3.5,1.844,1.7,1.7,0,0,1-.1.19,1.721,1.721,0,0,1-.127.185A4,4,0,0,0,707.156,264.512ZM683.47,251a4.146,4.146,0,0,0,4.187,4.094,4.209,4.209,0,0,0,3.576-1.967q.018-.033.037-.066c.014-.023.028-.046.043-.069a4.01,4.01,0,0,0,.005-3.976q-.025-.037-.048-.076t-.043-.076a4.209,4.209,0,0,0-3.571-1.959A4.146,4.146,0,0,0,683.47,251Zm27.873-9.418a4.1,4.1,0,1,0-4.187-4.1,4,4,0,0,0,.525,1.983q.025.037.049.077t.043.076A4.208,4.208,0,0,0,711.343,241.582Z" transform="translate(-680 -230)" fill="#fff"/>
</svg>
