<svg xmlns="http://www.w3.org/2000/svg" width="77" height="77" viewBox="0 0 77 77">
  <g id="Icon" transform="translate(-130 -1379)">
    <circle id="Placeholder" cx="38.5" cy="38.5" r="38.5" transform="translate(130 1379)" fill="#dad9dd" opacity="0.3"/>
    <g id="internet" transform="translate(152.815 1401.815)">
      <g id="Group_2" data-name="Group 2">
        <path id="Path_170" data-name="Path 170" d="M15.685,0A15.685,15.685,0,1,0,31.37,15.685,15.7,15.7,0,0,0,15.685,0Zm-5.1,3.036a15.9,15.9,0,0,0-2.15,4.311,14.589,14.589,0,0,1-2.518-1.17A13.688,13.688,0,0,1,10.585,3.036Zm-6,4.727A16.535,16.535,0,0,0,7.876,9.314a27.388,27.388,0,0,0-.7,5.348H2.084A13.559,13.559,0,0,1,4.589,7.763Zm0,15.844a13.559,13.559,0,0,1-2.5-6.9H7.178a27.388,27.388,0,0,0,.7,5.348A16.54,16.54,0,0,0,4.589,23.607Zm1.328,1.586a14.589,14.589,0,0,1,2.518-1.17,15.9,15.9,0,0,0,2.15,4.311A13.685,13.685,0,0,1,5.917,25.194Zm8.745,3.942c-2.112-.775-3.537-3.553-4.266-5.692a22.524,22.524,0,0,1,4.266-.576Zm0-8.315a24.544,24.544,0,0,0-4.823.657,25.358,25.358,0,0,1-.614-4.769h5.437V20.82Zm0-6.158H9.225A25.349,25.349,0,0,1,9.84,9.893a24.544,24.544,0,0,0,4.823.657Zm0-6.16A22.525,22.525,0,0,1,10.4,7.927c.729-2.138,2.152-4.916,4.266-5.692Zm12.119-.74a13.559,13.559,0,0,1,2.5,6.9H24.192a27.388,27.388,0,0,0-.7-5.348A16.54,16.54,0,0,0,26.782,7.763ZM25.454,6.177a14.589,14.589,0,0,1-2.518,1.17,15.9,15.9,0,0,0-2.15-4.311A13.685,13.685,0,0,1,25.454,6.177ZM16.708,2.235c2.112.775,3.537,3.553,4.266,5.692a22.523,22.523,0,0,1-4.266.576V2.235Zm0,8.315a24.544,24.544,0,0,0,4.823-.657,25.358,25.358,0,0,1,.614,4.769H16.708Zm0,6.151h5.437a25.422,25.422,0,0,1-.614,4.776,24.544,24.544,0,0,0-4.823-.657Zm0,12.434V22.868a22.525,22.525,0,0,1,4.266.576C20.245,25.582,18.821,28.36,16.708,29.136Zm4.077-.8a15.9,15.9,0,0,0,2.15-4.311,14.591,14.591,0,0,1,2.518,1.17A13.688,13.688,0,0,1,20.785,28.335Zm6-4.727a16.536,16.536,0,0,0-3.287-1.551,27.459,27.459,0,0,0,.7-5.355h5.094A13.582,13.582,0,0,1,26.782,23.607Z"/>
      </g>
    </g>
  </g>
</svg>
