<svg width="24" height="24" viewBox="0 0 24 24" fill="none" xmlns="http://www.w3.org/2000/svg">
<path fill-rule="evenodd" clip-rule="evenodd" d="M21.6 2.4C21.6 1.73726 21.0627 1.2 20.4 1.2H3.59999C2.93725 1.2 2.39999 1.73726 2.39999 2.4V21.6C2.39999 22.2627 2.93725 22.8 3.59999 22.8H20.4C21.0627 22.8 21.6 22.2627 21.6 21.6V2.4ZM4.19999 3H19.8V21H4.19999V3Z" fill="#B8B8BA"/>
<path fill-rule="evenodd" clip-rule="evenodd" d="M9 8.95312C9 7.32477 10.3248 6 11.9531 6C13.5815 6 14.9062 7.32484 14.9062 8.95312C14.9062 9.88808 14.4564 10.7775 13.7028 11.3322C13.2236 11.6851 12.9375 12.2503 12.9375 12.8442V12.8906C12.9375 13.4343 12.4968 13.875 11.9531 13.875C11.4095 13.875 10.9688 13.4343 10.9688 12.8906V12.8442C10.9688 11.6271 11.5545 10.4693 12.5355 9.74686C12.791 9.55878 12.9375 9.2695 12.9375 8.95312C12.9375 8.41034 12.4959 7.96875 11.9531 7.96875C11.4103 7.96875 10.9688 8.41034 10.9688 8.95312C10.9688 9.49676 10.528 9.9375 9.98438 9.9375C9.44074 9.9375 9 9.49676 9 8.95312ZM10.9688 16.8937C10.9688 16.3501 11.4095 15.9094 11.9531 15.9094C12.4968 15.9094 12.9375 16.3501 12.9375 16.8937C12.9375 17.4374 12.4968 17.8781 11.9531 17.8781C11.4095 17.8781 10.9688 17.4374 10.9688 16.8937Z" fill="#FD6256"/>
</svg>
