<svg xmlns="http://www.w3.org/2000/svg" width="88" height="76" viewBox="0 0 88 76"><g><g><g><path d="M49.362 0C40.884 0 32.864 2.753 26.17 7.962a2.225 2.225 0 1 0 2.734 3.512c5.905-4.594 12.98-7.022 20.458-7.022 18.41 0 33.387 14.977 33.387 33.387 0 18.409-14.978 33.386-33.387 33.386-16.629 0-30.85-12.415-33.082-28.88a2.226 2.226 0 0 0-1.354-1.757l-6.638-2.75 6.638-2.75a2.225 2.225 0 0 0 1.354-1.757A33.306 33.306 0 0 1 23 17.38a2.226 2.226 0 1 0-3.515-2.733 37.787 37.787 0 0 0-7.42 16.808L1.62 35.782a2.225 2.225 0 0 0 0 4.113l10.445 4.326c3.074 18.022 18.884 31.456 37.297 31.456 20.864 0 37.838-16.974 37.838-37.838C87.2 16.974 70.226 0 49.362 0z"/></g><g><path d="M49.362 17.806c-6.137 0-11.13 4.993-11.13 11.13a2.226 2.226 0 1 0 4.452 0 6.685 6.685 0 0 1 6.678-6.678 6.685 6.685 0 0 1 6.677 6.677c0 1.914-.825 3.74-2.265 5.01l-5.885 5.192a2.226 2.226 0 0 0-.753 1.67v2.967a2.225 2.225 0 1 0 4.452 0v-1.963l5.13-4.528a11.137 11.137 0 0 0 3.773-8.348c0-6.136-4.992-11.129-11.13-11.129z"/></g><g><path d="M49.362 50.451c-1.23 0-2.226.997-2.226 2.226v2.968a2.226 2.226 0 1 0 4.452 0v-2.968c0-1.23-.997-2.226-2.226-2.226z"/></g></g></g></svg>