<svg xmlns="http://www.w3.org/2000/svg" width="30" height="33.045" viewBox="0 0 30 33.045">
  <g id="Group_59" data-name="Group 59" transform="translate(-461.903 -1052.585)">
    <g id="Group_59-2" data-name="Group 59" transform="translate(461.903 1052.585)">
      <path id="download-arrow" d="M8.937,18.818a1.758,1.758,0,0,1,2.187,0,1.153,1.153,0,0,1,0,1.818L6.945,24.619a1.822,1.822,0,0,1-2.231,0L.459,20.636a1.13,1.13,0,0,1,0-1.818,1.758,1.758,0,0,1,2.187,0l1.632,1.819V1.273A1.43,1.43,0,0,1,5.829,0,1.411,1.411,0,0,1,7.36,1.273V20.636Z" transform="translate(0 11.567) rotate(-90)" fill="#b8b8ba"/>
      <path id="minus-symbol" d="M1.118,3.071A1.578,1.578,0,0,1,0,1.524,1.548,1.548,0,0,1,1.118,0H20.226c.413,0,.752.675.752,1.524s-.339,1.546-.752,1.546H1.118Z" transform="translate(0 25.589) rotate(-90)" fill="#b8b8ba"/>
    </g>
    <g id="Group_60" data-name="Group 60" transform="translate(465.403 1060.042)">
      <path id="download-arrow-2" data-name="download-arrow" d="M8.937,18.818a1.758,1.758,0,0,1,2.187,0,1.153,1.153,0,0,1,0,1.818L6.945,24.619a1.822,1.822,0,0,1-2.231,0L.459,20.636a1.13,1.13,0,0,1,0-1.818,1.758,1.758,0,0,1,2.187,0l1.632,1.819V1.273A1.43,1.43,0,0,1,5.829,0,1.411,1.411,0,0,1,7.36,1.273V20.636Z" transform="translate(26.5 14.021) rotate(90)" fill="#b8b8ba"/>
      <path id="minus-symbol-2" data-name="minus-symbol" d="M1.118,3.071A1.578,1.578,0,0,1,0,1.524,1.548,1.548,0,0,1,1.118,0H20.226c.413,0,.752.675.752,1.524s-.339,1.546-.752,1.546H1.118Z" transform="translate(26.5) rotate(90)" fill="#b8b8ba"/>
    </g>
  </g>
</svg>
