<svg xmlns="http://www.w3.org/2000/svg" width="31.98" height="29.316" viewBox="0 0 31.98 29.316">
  <g id="icon" transform="translate(0 -21.324)">
    <path id="Path_203" data-name="Path 203" d="M2.665,35.982a7.988,7.988,0,0,1,8-8H18.1L16.38,29.709a1.333,1.333,0,0,0,1.885,1.885l4-4h0c.031-.031.06-.063.088-.1.013-.015.024-.032.035-.047s.029-.038.042-.057.024-.039.035-.058.022-.035.032-.054.02-.04.029-.061.019-.038.027-.058.015-.04.022-.06.016-.042.022-.063.01-.04.016-.06.012-.044.016-.066.007-.047.011-.071.007-.039.008-.058a1.341,1.341,0,0,0,0-.263c0-.02-.006-.039-.008-.058s-.006-.047-.011-.071-.011-.044-.016-.066-.009-.041-.016-.061-.015-.042-.022-.063-.014-.04-.022-.06-.018-.038-.027-.058-.019-.041-.029-.061-.021-.036-.032-.054-.023-.039-.035-.058-.028-.038-.042-.057-.023-.032-.036-.048c-.028-.034-.057-.066-.088-.1h0l-4-4A1.333,1.333,0,1,0,16.38,23.6L18.1,25.321H10.645A10.653,10.653,0,0,0,0,35.982,9.9,9.9,0,0,0,2.911,42.99,1.333,1.333,0,1,0,4.8,41.106,7.231,7.231,0,0,1,2.665,35.982Z" transform="translate(0 0)"/>
    <path id="Path_204" data-name="Path 204" d="M171.975,144.936a9.9,9.9,0,0,0-2.911-7.008,1.333,1.333,0,0,0-1.885,1.884,7.231,7.231,0,0,1,2.131,5.124,7.988,7.988,0,0,1-8,8h-7.443l1.723-1.723a1.333,1.333,0,1,0-1.885-1.885l-4,4h0q-.046.046-.088.1c-.013.015-.024.032-.036.048s-.029.037-.042.057-.024.039-.035.058-.022.035-.032.054-.02.04-.029.06-.019.038-.027.058-.015.04-.022.059-.016.042-.022.064-.01.04-.015.06-.012.044-.016.066-.007.047-.011.07-.007.039-.008.059c0,.043-.007.087-.007.13h0q0,.065.007.13c0,.02.006.039.008.059s.006.047.011.07.011.044.016.066.009.04.015.06.015.042.022.064.014.04.022.06.018.039.027.058.018.041.029.06.021.036.032.054.023.039.035.058.028.038.042.057.023.032.035.047a1.315,1.315,0,0,0,.088.1l4,4a1.333,1.333,0,1,0,1.885-1.885l-1.723-1.723h7.458A10.653,10.653,0,0,0,171.975,144.936Z" transform="translate(-139.995 -108.955)"/>
  </g>
</svg>
