<svg id="refresh" xmlns="http://www.w3.org/2000/svg" width="24" height="25.846" viewBox="0 0 24 25.846">
  <path id="Path_3" data-name="Path 3" d="M38.3,0a.923.923,0,0,0-.923.923V4.3a11.977,11.977,0,0,0-20.308,8.628.923.923,0,1,0,1.846,0A10.154,10.154,0,0,1,36.557,6.069L32.467,7.433a.924.924,0,1,0,.583,1.754L38.589,7.34a.923.923,0,0,0,.631-.879V.923A.923.923,0,0,0,38.3,0Z" transform="translate(-17.067)"/>
  <path id="Path_4" data-name="Path 4" d="M72.429,221.867a.923.923,0,0,0-.923.923,10.154,10.154,0,0,1-17.644,6.854l4.089-1.363a.924.924,0,0,0-.583-1.754l-5.538,1.846a.923.923,0,0,0-.631.879v5.538a.923.923,0,0,0,1.846,0v-3.372a11.977,11.977,0,0,0,20.308-8.628A.923.923,0,0,0,72.429,221.867Z" transform="translate(-49.352 -209.867)"/>
</svg>
