<svg xmlns="http://www.w3.org/2000/svg" width="29.698" height="29.698" viewBox="0 0 29.698 29.698">
  <g id="Remove" transform="translate(-119.333 -494.126)">
    <path id="Op_component_1" data-name="Op component 1" d="M618.475,230a7.143,7.143,0,0,0-7.212,7.054,7.01,7.01,0,0,0,3.131,5.813,12.472,12.472,0,0,0-4.741,2.908A11.99,11.99,0,0,0,606,254.4h1.949a10.425,10.425,0,0,1,10.526-10.3,7.056,7.056,0,1,0,0-14.109Zm0,12.2a5.149,5.149,0,1,1,5.263-5.148A5.212,5.212,0,0,1,618.475,242.2Z" transform="translate(-484 267)"/>
    <path id="Op_component_1-2" data-name="Op component 1" d="M613.212,230a7.143,7.143,0,0,1,7.212,7.054,7.011,7.011,0,0,1-3.131,5.813,12.473,12.473,0,0,1,4.741,2.908,11.989,11.989,0,0,1,3.654,8.628h-1.949a10.425,10.425,0,0,0-10.526-10.3,7.056,7.056,0,1,1,0-14.109Zm0,12.2a5.149,5.149,0,1,0-5.263-5.148A5.212,5.212,0,0,0,613.212,242.2Z" transform="translate(-478.687 267)"/>
    <g id="cross" transform="translate(123.575 496.954) rotate(45)" stroke="#fff" stroke-width="2">
      <rect width="32" height="2" rx="1" stroke="none"/>
      <rect x="-1" y="-1" width="34" height="4" rx="2" fill="none"/>
    </g>
  </g>
</svg>
