<svg xmlns="http://www.w3.org/2000/svg" width="27.02" height="24.7" viewBox="0 0 27.02 24.7">
  <g id="Report" transform="translate(0 -20.882)">
    <path id="Path_218" data-name="Path 218" d="M219.614,333.382a1.389,1.389,0,0,0,0,2.777,1.389,1.389,0,0,0,0-2.777Z" transform="translate(-206.105 -295.143)"/>
    <path id="Path_219" data-name="Path 219" d="M26.362,43.16a4.742,4.742,0,0,0,.011-4.8L17.675,23.3a4.792,4.792,0,0,0-8.32-.006L.645,38.372a4.811,4.811,0,0,0,4.166,7.209H22.185A4.783,4.783,0,0,0,26.362,43.16Zm-2.881-1.668a2.625,2.625,0,0,1-2.294,1.327H5.813a2.589,2.589,0,0,1-2.266-1.3,2.628,2.628,0,0,1-.006-2.649l7.7-13.495a2.616,2.616,0,0,1,4.543.006L23.5,38.876A2.593,2.593,0,0,1,23.481,41.492Z" transform="translate(0 0)"/>
    <path id="Path_220" data-name="Path 220" d="M218.8,157.215a1.51,1.51,0,0,0-1.072,1.516c.033.439.061.883.094,1.322.094,1.672.189,3.31.283,4.982a1.018,1.018,0,0,0,1.039.978A1.038,1.038,0,0,0,220.18,165c0-.344,0-.661.033-1.011.061-1.072.128-2.144.189-3.216.033-.694.094-1.389.128-2.083A1.715,1.715,0,0,0,220.4,158,1.392,1.392,0,0,0,218.8,157.215Z" transform="translate(-205.632 -128.724)"/>
  </g>
</svg>
