<svg xmlns="http://www.w3.org/2000/svg" width="35.875" height="34" viewBox="0 0 35.875 34">
  <path id="Icon" d="M280.688,1559.15l6.25-6a14.805,14.805,0,0,1-2.949-8.841c0-8.444,7.152-15.313,15.943-15.313s15.943,6.869,15.943,15.313-7.151,15.312-15.943,15.312a16.259,16.259,0,0,1-9.747-3.221L284,1562.333a2.414,2.414,0,0,1-3.317,0A2.188,2.188,0,0,1,280.688,1559.15Zm31.436-14.844a12.2,12.2,0,0,0-24.384,0,11.346,11.346,0,0,0,2.547,7.136,12.076,12.076,0,0,0,1.772,1.79,12.43,12.43,0,0,0,7.873,2.784A11.973,11.973,0,0,0,312.124,1544.306Z" transform="translate(-280.001 -1528.993)"/>
</svg>
