<svg xmlns="http://www.w3.org/2000/svg" xmlns:xlink="http://www.w3.org/1999/xlink" width="160" height="160" viewBox="0 0 160 160">
  <defs>
    <clipPath id="clip-path">
      <circle id="Placeholder" cx="80" cy="80" r="80" fill="#f5f5f5" stroke="#fff" stroke-linejoin="round" stroke-width="4"/>
    </clipPath>
  </defs>
  <g id="icon" transform="translate(-346 -732)">
    <g id="Clip" transform="translate(346 732)" clip-path="url(#clip-path)">
      <rect id="Picture" width="203" height="303" transform="translate(-42)" fill="#f5f5f5"/>
    </g>
    <path id="Icon-2" data-name="Icon" d="M12471.6,213c0-21.637-18.116-39.235-40.377-39.235h-.365c-22.266,0-40.379,17.6-40.379,39.235H12383a45.537,45.537,0,0,1,14.021-32.884,47.935,47.935,0,0,1,18.184-11.084,26.672,26.672,0,0,1-12.014-22.153c0-14.818,12.413-26.878,27.671-26.878h.365c15.247,0,27.66,12.06,27.66,26.878a26.673,26.673,0,0,1-12.012,22.153,47.857,47.857,0,0,1,18.183,11.084A45.545,45.545,0,0,1,12479.077,213Zm-60.57-66.121c0,10.763,8.957,19.525,20.009,19.62,11.047-.095,20-8.857,20-19.62s-8.957-19.518-20-19.613C12419.989,127.361,12411.032,136.123,12411.032,146.879Z" transform="translate(-12004.998 645.999)" fill="#b8b8ba" stroke="rgba(0,0,0,0)" stroke-miterlimit="10" stroke-width="1"/>
  </g>
</svg>
