<svg xmlns="http://www.w3.org/2000/svg" width="28.28" height="24.359" viewBox="0 0 28.28 24.359">
  <path id="Submit_plane_" data-name="Submit (plane)" d="M0,46.168a1.37,1.37,0,0,0,.981,1.24l10.36,3.132.381,7.141a.708.708,0,0,0,.479.623.649.649,0,0,0,.231.04.7.7,0,0,0,.531-.236l3.663-4.055,5.191,3.594a1.362,1.362,0,0,0,.784.248,1.393,1.393,0,0,0,1.356-1.107l4.309-21.959a.705.705,0,0,0-.958-.79L.833,44.812A1.392,1.392,0,0,0,0,46.168ZM13.038,55.91l-.236-4.5,2.653,1.834Zm9.54.548-9.448-6.541L26.38,37.1Zm2.348-19.923-13.1,12.673L1.479,46.081Z" transform="translate(0 -33.985)" fill="#fff"/>
</svg>
