<svg xmlns="http://www.w3.org/2000/svg" width="47.376" height="47.376" viewBox="0 0 47.376 47.376">
  <g id="Notifications" transform="translate(-546.797 -684.297)">
    <path id="Icon" d="M565.2,1556.091h-1.8v-14.545a14.4,14.4,0,1,0-28.8,0v14.545h-1.8a1.818,1.818,0,0,0,0,3.636h9a7.2,7.2,0,1,0,14.4,0h9a1.818,1.818,0,0,0,0-3.636Zm-16.2,7.273a3.622,3.622,0,0,1-3.6-3.636h7.2A3.622,3.622,0,0,1,549,1563.364Zm10.8-7.273H538.2v-14.545a10.8,10.8,0,1,1,21.6,0Z" transform="translate(22 -838)" fill="#b8b8ba"/>
    <g id="Cross" transform="translate(554.575 689.954) rotate(45)" fill="#b8b8ba" stroke="#fff" stroke-width="4">
      <rect width="48" height="3" rx="1.5" stroke="none"/>
      <rect x="-2" y="-2" width="52" height="7" rx="3.5" fill="none"/>
    </g>
  </g>
</svg>
