<svg xmlns="http://www.w3.org/2000/svg" xmlns:xlink="http://www.w3.org/1999/xlink" width="60.112" height="60.114" viewBox="0 0 60.112 60.114">
  <defs>
    <linearGradient id="linear-gradient" x1="0.163" y1="0.899" x2="0.725" y2="0.076" gradientUnits="objectBoundingBox">
      <stop offset="0" stop-color="#20b038"/>
      <stop offset="1" stop-color="#5ef26a"/>
    </linearGradient>
  </defs>
  <g id="Page-1" transform="translate(-0.961 -0.619)">
    <g id="Artboard" transform="translate(0.961 0.619)">
      <g id="_-" data-name="-" transform="translate(0 0)">
        <g id="whatsapp-symbol" transform="translate(0 0)">
          <path id="Path" d="M4.631,45.064q-.338-.619-.524-.993A30.058,30.058,0,1,1,31.018,60.733h-.013a30.056,30.056,0,0,1-13.6-3.258l-.16-.083a1.766,1.766,0,0,0-1.263-.142L3.668,60.479A1.766,1.766,0,0,1,1.518,58.3L4.784,46.377A1.766,1.766,0,0,0,4.631,45.064Z" transform="translate(-0.961 -0.619)" fill="url(#linear-gradient)"/>
          <path id="Path-2" data-name="Path" d="M17.066,10.852c-.583-1.3-1.2-1.321-1.751-1.344-.453-.019-.973-.018-1.491-.018a2.858,2.858,0,0,0-2.074.973,8.72,8.72,0,0,0-2.723,6.488c0,3.828,2.788,7.526,3.176,8.046s5.382,8.624,13.289,11.742c6.571,2.591,7.909,2.076,9.335,1.946s4.6-1.881,5.251-3.7a6.5,6.5,0,0,0,.454-3.7c-.195-.324-.713-.519-1.491-.908s-4.6-2.271-5.316-2.531-1.232-.389-1.751.39-2.009,2.53-2.463,3.048-.908.585-1.686.2a21.278,21.278,0,0,1-6.256-3.861,23.431,23.431,0,0,1-4.328-5.387c-.454-.778-.049-1.2.342-1.587.349-.349.778-.908,1.167-1.362a5.333,5.333,0,0,0,.777-1.3,1.432,1.432,0,0,0-.065-1.363c-.195-.389-1.706-4.236-2.4-5.774Z" transform="translate(5.214 6.172)" fill="#fff" fill-rule="evenodd"/>
        </g>
      </g>
    </g>
  </g>
</svg>
