<svg xmlns="http://www.w3.org/2000/svg" width="256.2" height="155.637" viewBox="0 0 256.2 155.637">
  <g id="Icon" transform="translate(-180 -1422)">
    <g id="confusion" transform="translate(349.246 1422)">
      <path id="Path_238" data-name="Path 238" d="M223.119,15a37.434,37.434,0,0,0-23.192,7.962,2.226,2.226,0,1,0,2.734,3.513,33.027,33.027,0,0,1,20.458-7.023,33.387,33.387,0,1,1-33.082,37.894,2.226,2.226,0,0,0-1.354-1.757l-6.638-2.75,6.638-2.75a2.225,2.225,0,0,0,1.354-1.758,33.306,33.306,0,0,1,6.719-15.95,2.226,2.226,0,0,0-3.514-2.733,37.787,37.787,0,0,0-7.421,16.808l-10.445,4.326a2.226,2.226,0,0,0,0,4.113l10.444,4.326A37.839,37.839,0,1,0,223.119,15Z" transform="translate(-174.003 -15)"/>
      <path id="Path_239" data-name="Path 239" d="M313.131,75A11.141,11.141,0,0,0,302,86.129a2.226,2.226,0,1,0,4.451,0,6.677,6.677,0,1,1,11.09,5.009l-5.885,5.193A2.226,2.226,0,0,0,310.905,98v2.968a2.226,2.226,0,1,0,4.452,0V99l5.131-4.528A11.127,11.127,0,0,0,313.131,75Z" transform="translate(-264.015 -57.194)"/>
      <path id="Path_240" data-name="Path 240" d="M334.228,185A2.226,2.226,0,0,0,332,187.226v2.968a2.226,2.226,0,1,0,4.452,0v-2.968A2.225,2.225,0,0,0,334.228,185Z" transform="translate(-285.112 -134.549)"/>
    </g>
    <g id="cookie" transform="translate(180 1422)">
      <path id="Path_252" data-name="Path 252" d="M372.08,249.04a3.04,3.04,0,1,1-3.04-3.04A3.04,3.04,0,0,1,372.08,249.04Zm0,0" transform="translate(-254.744 -171.221)"/>
      <path id="Path_253" data-name="Path 253" d="M272.08,189.04a3.04,3.04,0,1,1-3.04-3.04A3.04,3.04,0,0,1,272.08,189.04Zm0,0" transform="translate(-185.142 -129.46)"/>
      <path id="Path_254" data-name="Path 254" d="M252.08,399.04a3.04,3.04,0,1,1-3.04-3.04A3.04,3.04,0,0,1,252.08,399.04Zm0,0" transform="translate(-171.222 -275.624)"/>
      <path id="Path_255" data-name="Path 255" d="M102.08,219.04A3.04,3.04,0,1,1,99.04,216,3.04,3.04,0,0,1,102.08,219.04Zm0,0" transform="translate(-66.818 -150.34)"/>
      <path id="Path_256" data-name="Path 256" d="M118.159,340.318A12.159,12.159,0,1,0,106,328.159,12.173,12.173,0,0,0,118.159,340.318Zm0-18.239a6.08,6.08,0,1,1-6.08,6.08A6.087,6.087,0,0,1,118.159,322.08Zm0,0" transform="translate(-73.779 -219.942)"/>
      <path id="Path_257" data-name="Path 257" d="M180.318,98.159a12.159,12.159,0,1,0-12.159,12.159A12.173,12.173,0,0,0,180.318,98.159Zm-18.239,0a6.08,6.08,0,1,1,6.08,6.08A6.087,6.087,0,0,1,162.08,98.159Zm0,0" transform="translate(-108.58 -59.858)"/>
      <path id="Path_258" data-name="Path 258" d="M306,318.159A12.159,12.159,0,1,0,318.159,306,12.173,12.173,0,0,0,306,318.159Zm18.239,0a6.08,6.08,0,1,1-6.08-6.08A6.087,6.087,0,0,1,324.239,318.159Zm0,0" transform="translate(-212.983 -212.982)"/>
      <path id="Path_259" data-name="Path 259" d="M215.119,264.239A9.119,9.119,0,1,0,206,255.119,9.129,9.129,0,0,0,215.119,264.239Zm0-12.159a3.04,3.04,0,1,1-3.04,3.04A3.043,3.043,0,0,1,215.119,252.08Zm0,0" transform="translate(-143.381 -171.221)"/>
      <path id="Path_260" data-name="Path 260" d="M252.08,495.04a3.04,3.04,0,1,1-3.04-3.04A3.04,3.04,0,0,1,252.08,495.04Zm0,0" transform="translate(-171.222 -342.442)"/>
      <path id="Path_261" data-name="Path 261" d="M150.286,63.965a19.073,19.073,0,0,1-7.721,1.694c-6.042,0-11.993-3.491-14.473-8.489a3.042,3.042,0,0,0-3.593-1.561,19.441,19.441,0,0,1-5.644.931A19.782,19.782,0,0,1,99.1,36.782a19.447,19.447,0,0,1,.931-5.644,3.038,3.038,0,0,0-1.561-3.593c-5-2.481-8.489-8.432-8.489-14.473a19.073,19.073,0,0,1,1.694-7.721A3.039,3.039,0,0,0,89.42.975,75.168,75.168,0,0,0,77.818,0C35.875,0,0,35.809,0,77.819c0,36.484,27.351,69.345,63.619,76.44a3.04,3.04,0,1,0,1.167-5.967C31.318,141.746,6.079,111.449,6.079,77.819,6.079,38.932,38.931,6.08,77.818,6.08a62.413,62.413,0,0,1,6.986.411,26.051,26.051,0,0,0-.906,6.581A23.13,23.13,0,0,0,93.6,31.72a23.193,23.193,0,0,0-.578,5.062A25.868,25.868,0,0,0,118.855,62.62a23.192,23.192,0,0,0,5.062-.578,23.13,23.13,0,0,0,18.648,9.7,26.051,26.051,0,0,0,6.581-.906,62.411,62.411,0,0,1,.411,6.986c0,33.63-25.239,63.927-58.707,70.473a3.04,3.04,0,0,0,1.167,5.967c36.269-7.095,63.619-39.957,63.619-76.44a75.167,75.167,0,0,0-.975-11.6,3.04,3.04,0,0,0-4.376-2.251Zm0,0"/>
    </g>
  </g>
</svg>
